<svg width="354" height="272" viewBox="0 0 354 272" fill="none" xmlns="http://www.w3.org/2000/svg">
<path d="M354 239.029H0V239.211H354V239.029Z" fill="#EBEBEB"/>
<path d="M318.529 250.776H295.08V250.958H318.529V250.776Z" fill="#EBEBEB"/>
<path d="M234.504 252.762H228.351V252.944H234.504V252.762Z" fill="#EBEBEB"/>
<path d="M294.372 244.001H280.786V244.183H294.372V244.001Z" fill="#EBEBEB"/>
<path d="M67.7202 245.228H37.1417V245.41H67.7202V245.228Z" fill="#EBEBEB"/>
<path d="M78.5101 245.228H74.0285V245.41H78.5101V245.228Z" fill="#EBEBEB"/>
<path d="M159.406 248.309H93.0808V248.491H159.406V248.309Z" fill="#EBEBEB"/>
<path d="M167.796 206.468H31.0883C30.0173 206.466 28.9909 206.026 28.2343 205.244C27.4776 204.463 27.0527 203.403 27.0527 202.299V4.13227C27.062 3.03425 27.4911 1.98435 28.2467 1.21064C29.0023 0.436925 30.0234 0.00188098 31.0883 0H167.796C168.868 0 169.896 0.439209 170.655 1.22101C171.413 2.0028 171.839 3.06315 171.839 4.16878V202.299C171.839 203.405 171.413 204.465 170.655 205.247C169.896 206.028 168.868 206.468 167.796 206.468ZM31.0883 0.146017C30.0643 0.147951 29.0828 0.568783 28.3594 1.31614C27.636 2.0635 27.2297 3.07632 27.2297 4.13227V202.299C27.2297 203.355 27.636 204.368 28.3594 205.115C29.0828 205.862 30.0643 206.283 31.0883 206.285H167.796C168.821 206.283 169.803 205.863 170.527 205.115C171.252 204.368 171.66 203.356 171.662 202.299V4.13227C171.66 3.07565 171.252 2.06285 170.527 1.3157C169.803 0.568546 168.821 0.147947 167.796 0.146017H31.0883Z" fill="#EBEBEB"/>
<path d="M320.943 206.468H184.229C183.157 206.466 182.13 206.026 181.372 205.245C180.614 204.463 180.188 203.404 180.186 202.299V4.13227C180.197 3.03358 180.628 1.98369 181.385 1.21018C182.141 0.436669 183.163 0.00186047 184.229 0H320.943C322.007 0.00379972 323.026 0.439692 323.781 1.2132C324.535 1.98671 324.963 3.03551 324.972 4.13227V202.299C324.972 203.402 324.548 204.46 323.793 205.242C323.038 206.023 322.013 206.464 320.943 206.468ZM184.229 0.146017C183.204 0.147947 182.222 0.568546 181.497 1.3157C180.773 2.06285 180.365 3.07565 180.363 4.13227V202.299C180.365 203.356 180.773 204.368 181.497 205.115C182.222 205.863 183.204 206.283 184.229 206.285H320.943C321.968 206.283 322.95 205.863 323.675 205.115C324.399 204.368 324.807 203.356 324.809 202.299V4.13227C324.807 3.07565 324.399 2.06285 323.675 1.3157C322.95 0.568546 321.968 0.147947 320.943 0.146017H184.229Z" fill="#EBEBEB"/>
<path d="M213.285 124.275L283.816 124.275V43.8415L213.285 43.8415V124.275Z" fill="#E0E0E0"/>
<path d="M211.034 124.275L284.184 124.275V43.8415L211.034 43.8415V124.275Z" fill="#F0F0F0"/>
<path d="M214.135 120.581L281.211 120.581V46.4042L214.135 46.4042V120.581Z" fill="white"/>
<path d="M214.128 120.581H216.067V46.4042H214.128V120.581Z" fill="#E0E0E0"/>
<path d="M215.862 99.7441V101.745H281.38V99.7441H215.862Z" fill="#E0E0E0"/>
<path d="M214.135 99.744L282.251 99.744V96.3856L214.135 96.3856V99.744Z" fill="#F0F0F0"/>
<path d="M139.09 64.535C146.72 62.1518 151.033 53.8412 148.722 45.9726C146.41 38.104 138.351 33.6572 130.721 36.0404C123.09 38.4235 118.778 46.7342 121.089 54.6028C123.4 62.4713 131.459 66.9181 139.09 64.535Z" fill="#E0E0E0"/>
<path d="M136.87 62.7916C143.562 61.6713 148.107 55.1685 147.021 48.2671C145.934 41.3656 139.628 36.6791 132.935 37.7994C126.243 38.9196 121.698 45.4225 122.784 52.3239C123.871 59.2253 130.177 63.9118 136.87 62.7916Z" fill="#F0F0F0"/>
<path d="M134.329 58.9835V50.1349L128.637 53.4568" fill="#F0F0F0"/>
<path d="M134.329 59.6187C134.248 59.6187 134.168 59.6023 134.093 59.5704C134.018 59.5384 133.95 59.4917 133.893 59.4327C133.836 59.3737 133.791 59.3037 133.76 59.2266C133.729 59.1496 133.713 59.0669 133.713 58.9835V51.2228L128.941 54.0263C128.871 54.0676 128.794 54.0942 128.713 54.1045C128.633 54.1148 128.552 54.1085 128.474 54.0861C128.397 54.0637 128.324 54.0256 128.261 53.9739C128.197 53.9223 128.145 53.8582 128.106 53.7853C128.026 53.639 128.007 53.4663 128.05 53.305C128.094 53.1436 128.198 53.0066 128.339 52.9238L134.003 49.6093C134.096 49.5555 134.201 49.5273 134.308 49.5273C134.414 49.5273 134.519 49.5555 134.612 49.6093C134.705 49.6647 134.782 49.7446 134.836 49.8407C134.889 49.9369 134.917 50.046 134.916 50.1568V59.0054C134.911 59.1652 134.848 59.317 134.739 59.4306C134.63 59.5443 134.484 59.6115 134.329 59.6187Z" fill="#E0E0E0"/>
<path d="M68.237 232.787H52.9442V239.022H68.237V232.787Z" fill="#F5F5F5"/>
<path d="M51.599 232.787H44.6252V239.022H51.599V232.787Z" fill="#F5F5F5"/>
<path d="M84.8609 232.787H69.5681V239.022H84.8609V232.787Z" fill="#F5F5F5"/>
<path d="M101.492 232.787H86.199V239.022H101.492V232.787Z" fill="#F5F5F5"/>
<path d="M118.123 232.787H102.83V239.022H118.123V232.787Z" fill="#F5F5F5"/>
<path d="M134.747 232.787H119.454V239.022H134.747V232.787Z" fill="#F5F5F5"/>
<path d="M151.378 232.787H136.085V239.022H151.378V232.787Z" fill="#F5F5F5"/>
<path d="M168.008 232.787H152.716V239.022H168.008V232.787Z" fill="#F5F5F5"/>
<path d="M184.632 232.787H169.339V239.022H184.632V232.787Z" fill="#F5F5F5"/>
<path d="M201.263 232.787H185.97V239.022H201.263V232.787Z" fill="#F5F5F5"/>
<path d="M217.894 232.787H202.601V239.022H217.894V232.787Z" fill="#F5F5F5"/>
<path d="M234.518 232.787H219.225V239.022H234.518V232.787Z" fill="#F5F5F5"/>
<path d="M251.149 232.787H235.856V239.022H251.149V232.787Z" fill="#F5F5F5"/>
<path d="M267.78 232.787H252.487V239.022H267.78V232.787Z" fill="#F5F5F5"/>
<path d="M284.404 232.787H269.111V239.022H284.404V232.787Z" fill="#F5F5F5"/>
<path d="M301.035 232.787H285.742V239.022H301.035V232.787Z" fill="#F5F5F5"/>
<path d="M309.346 232.787H302.373V239.022H309.346V232.787Z" fill="#F5F5F5"/>
<path d="M59.918 224.975H44.6252V231.21H59.918V224.975Z" fill="#F5F5F5"/>
<path d="M76.549 224.975H61.2561V231.21H76.549V224.975Z" fill="#F5F5F5"/>
<path d="M93.1799 224.975H77.8871V231.21H93.1799V224.975Z" fill="#F5F5F5"/>
<path d="M109.804 224.975H94.5109V231.21H109.804V224.975Z" fill="#F5F5F5"/>
<path d="M126.435 224.975H111.142V231.21H126.435V224.975Z" fill="#F5F5F5"/>
<path d="M143.066 224.975H127.773V231.21H143.066V224.975Z" fill="#F5F5F5"/>
<path d="M159.689 224.975H144.397V231.21H159.689V224.975Z" fill="#F5F5F5"/>
<path d="M176.32 224.975H161.028V231.21H176.32V224.975Z" fill="#F5F5F5"/>
<path d="M192.951 224.975H177.658V231.21H192.951V224.975Z" fill="#F5F5F5"/>
<path d="M209.575 224.975H194.282V231.21H209.575V224.975Z" fill="#F5F5F5"/>
<path d="M226.206 224.975H210.913V231.21H226.206V224.975Z" fill="#F5F5F5"/>
<path d="M242.837 224.975H227.544V231.21H242.837V224.975Z" fill="#F5F5F5"/>
<path d="M259.461 224.975H244.168V231.21H259.461V224.975Z" fill="#F5F5F5"/>
<path d="M276.092 224.975H260.799V231.21H276.092V224.975Z" fill="#F5F5F5"/>
<path d="M292.723 224.975H277.43V231.21H292.723V224.975Z" fill="#F5F5F5"/>
<path d="M309.346 224.975H294.054V231.21H309.346V224.975Z" fill="#F5F5F5"/>
<path d="M68.237 217.163H52.9442V223.398H68.237V217.163Z" fill="#F5F5F5"/>
<path d="M51.599 217.163H44.6252V223.398H51.599V217.163Z" fill="#F5F5F5"/>
<path d="M84.8609 217.163H69.5681V223.398H84.8609V217.163Z" fill="#F5F5F5"/>
<path d="M101.492 217.163H86.199V223.398H101.492V217.163Z" fill="#F5F5F5"/>
<path d="M118.123 217.163H102.83V223.398H118.123V217.163Z" fill="#F5F5F5"/>
<path d="M134.747 217.163H119.454V223.398H134.747V217.163Z" fill="#F5F5F5"/>
<path d="M151.378 217.163H136.085V223.398H151.378V217.163Z" fill="#F5F5F5"/>
<path d="M168.008 217.163H152.716V223.398H168.008V217.163Z" fill="#F5F5F5"/>
<path d="M184.632 217.163H169.339V223.398H184.632V217.163Z" fill="#F5F5F5"/>
<path d="M201.263 217.163H185.97V223.398H201.263V217.163Z" fill="#F5F5F5"/>
<path d="M217.894 217.163H202.601V223.398H217.894V217.163Z" fill="#F5F5F5"/>
<path d="M234.518 217.163H219.225V223.398H234.518V217.163Z" fill="#F5F5F5"/>
<path d="M251.149 217.163H235.856V223.398H251.149V217.163Z" fill="#F5F5F5"/>
<path d="M267.78 217.163H252.487V223.398H267.78V217.163Z" fill="#F5F5F5"/>
<path d="M284.404 217.163H269.111V223.398H284.404V217.163Z" fill="#F5F5F5"/>
<path d="M301.035 217.163H285.742V223.398H301.035V217.163Z" fill="#F5F5F5"/>
<path d="M309.346 217.163H302.373V223.398H309.346V217.163Z" fill="#F5F5F5"/>
<path d="M59.918 209.351H44.6252V215.586H59.918V209.351Z" fill="#F5F5F5"/>
<path d="M76.549 209.351H61.2561V215.586H76.549V209.351Z" fill="#F5F5F5"/>
<path d="M93.1799 209.351H77.8871V215.586H93.1799V209.351Z" fill="#F5F5F5"/>
<path d="M109.804 209.351H94.5109V215.586H109.804V209.351Z" fill="#F5F5F5"/>
<path d="M126.435 209.351H111.142V215.586H126.435V209.351Z" fill="#F5F5F5"/>
<path d="M143.066 209.351H127.773V215.586H143.066V209.351Z" fill="#F5F5F5"/>
<path d="M159.689 209.351H144.397V215.586H159.689V209.351Z" fill="#F5F5F5"/>
<path d="M176.32 209.351H161.028V215.586H176.32V209.351Z" fill="#F5F5F5"/>
<path d="M192.951 209.351H177.658V215.586H192.951V209.351Z" fill="#F5F5F5"/>
<path d="M209.575 209.351H194.282V215.586H209.575V209.351Z" fill="#F5F5F5"/>
<path d="M226.206 209.351H210.913V215.586H226.206V209.351Z" fill="#F5F5F5"/>
<path d="M242.837 209.351H227.544V215.586H242.837V209.351Z" fill="#F5F5F5"/>
<path d="M259.461 209.351H244.168V215.586H259.461V209.351Z" fill="#F5F5F5"/>
<path d="M276.092 209.351H260.799V215.586H276.092V209.351Z" fill="#F5F5F5"/>
<path d="M292.723 209.351H277.43V215.586H292.723V209.351Z" fill="#F5F5F5"/>
<path d="M309.346 209.351H294.054V215.586H309.346V209.351Z" fill="#F5F5F5"/>
<path d="M68.237 201.54H52.9442V207.774H68.237V201.54Z" fill="#F5F5F5"/>
<path d="M51.599 201.54H44.6252V207.774H51.599V201.54Z" fill="#F5F5F5"/>
<path d="M84.8609 201.54H69.5681V207.774H84.8609V201.54Z" fill="#F5F5F5"/>
<path d="M101.492 201.54H86.199V207.774H101.492V201.54Z" fill="#F5F5F5"/>
<path d="M118.123 201.54H102.83V207.774H118.123V201.54Z" fill="#F5F5F5"/>
<path d="M134.747 201.54H119.454V207.774H134.747V201.54Z" fill="#F5F5F5"/>
<path d="M151.378 201.54H136.085V207.774H151.378V201.54Z" fill="#F5F5F5"/>
<path d="M168.008 201.54H152.716V207.774H168.008V201.54Z" fill="#F5F5F5"/>
<path d="M184.632 201.54H169.339V207.774H184.632V201.54Z" fill="#F5F5F5"/>
<path d="M201.263 201.54H185.97V207.774H201.263V201.54Z" fill="#F5F5F5"/>
<path d="M217.894 201.54H202.601V207.774H217.894V201.54Z" fill="#F5F5F5"/>
<path d="M234.518 201.54H219.225V207.774H234.518V201.54Z" fill="#F5F5F5"/>
<path d="M251.149 201.54H235.856V207.774H251.149V201.54Z" fill="#F5F5F5"/>
<path d="M267.78 201.54H252.487V207.774H267.78V201.54Z" fill="#F5F5F5"/>
<path d="M284.404 201.54H269.111V207.774H284.404V201.54Z" fill="#F5F5F5"/>
<path d="M301.035 201.54H285.742V207.774H301.035V201.54Z" fill="#F5F5F5"/>
<path d="M309.346 201.54H302.373V207.774H309.346V201.54Z" fill="#F5F5F5"/>
<path d="M59.918 193.728H44.6252V199.963H59.918V193.728Z" fill="#F5F5F5"/>
<path d="M76.549 193.728H61.2561V199.963H76.549V193.728Z" fill="#F5F5F5"/>
<path d="M93.1799 193.728H77.8871V199.963H93.1799V193.728Z" fill="#F5F5F5"/>
<path d="M109.804 193.728H94.5109V199.963H109.804V193.728Z" fill="#F5F5F5"/>
<path d="M126.435 193.728H111.142V199.963H126.435V193.728Z" fill="#F5F5F5"/>
<path d="M143.066 193.728H127.773V199.963H143.066V193.728Z" fill="#F5F5F5"/>
<path d="M159.689 193.728H144.397V199.963H159.689V193.728Z" fill="#F5F5F5"/>
<path d="M176.32 193.728H161.028V199.963H176.32V193.728Z" fill="#F5F5F5"/>
<path d="M192.951 193.728H177.658V199.963H192.951V193.728Z" fill="#F5F5F5"/>
<path d="M209.575 193.728H194.282V199.963H209.575V193.728Z" fill="#F5F5F5"/>
<path d="M226.206 193.728H210.913V199.963H226.206V193.728Z" fill="#F5F5F5"/>
<path d="M242.837 193.728H227.544V199.963H242.837V193.728Z" fill="#F5F5F5"/>
<path d="M259.461 193.728H244.168V199.963H259.461V193.728Z" fill="#F5F5F5"/>
<path d="M276.092 193.728H260.799V199.963H276.092V193.728Z" fill="#F5F5F5"/>
<path d="M292.723 193.728H277.43V199.963H292.723V193.728Z" fill="#F5F5F5"/>
<path d="M309.346 193.728H294.054V199.963H309.346V193.728Z" fill="#F5F5F5"/>
<path d="M68.237 185.916H52.9442V192.151H68.237V185.916Z" fill="#F5F5F5"/>
<path d="M51.599 185.916H44.6252V192.151H51.599V185.916Z" fill="#F5F5F5"/>
<path d="M84.8609 185.916H69.5681V192.151H84.8609V185.916Z" fill="#F5F5F5"/>
<path d="M101.492 185.916H86.199V192.151H101.492V185.916Z" fill="#F5F5F5"/>
<path d="M118.123 185.916H102.83V192.151H118.123V185.916Z" fill="#F5F5F5"/>
<path d="M134.747 185.916H119.454V192.151H134.747V185.916Z" fill="#F5F5F5"/>
<path d="M151.378 185.916H136.085V192.151H151.378V185.916Z" fill="#F5F5F5"/>
<path d="M168.008 185.916H152.716V192.151H168.008V185.916Z" fill="#F5F5F5"/>
<path d="M184.632 185.916H169.339V192.151H184.632V185.916Z" fill="#F5F5F5"/>
<path d="M201.263 185.916H185.97V192.151H201.263V185.916Z" fill="#F5F5F5"/>
<path d="M217.894 185.916H202.601V192.151H217.894V185.916Z" fill="#F5F5F5"/>
<path d="M234.518 185.916H219.225V192.151H234.518V185.916Z" fill="#F5F5F5"/>
<path d="M251.149 185.916H235.856V192.151H251.149V185.916Z" fill="#F5F5F5"/>
<path d="M267.78 185.916H252.487V192.151H267.78V185.916Z" fill="#F5F5F5"/>
<path d="M284.404 185.916H269.111V192.151H284.404V185.916Z" fill="#F5F5F5"/>
<path d="M301.035 185.916H285.742V192.151H301.035V185.916Z" fill="#F5F5F5"/>
<path d="M309.346 185.916H302.373V192.151H309.346V185.916Z" fill="#F5F5F5"/>
<path d="M59.918 178.104H44.6252V184.339H59.918V178.104Z" fill="#F5F5F5"/>
<path d="M76.549 178.104H61.2561V184.339H76.549V178.104Z" fill="#F5F5F5"/>
<path d="M93.1799 178.104H77.8871V184.339H93.1799V178.104Z" fill="#F5F5F5"/>
<path d="M109.804 178.104H94.5109V184.339H109.804V178.104Z" fill="#F5F5F5"/>
<path d="M126.435 178.104H111.142V184.339H126.435V178.104Z" fill="#F5F5F5"/>
<path d="M143.066 178.104H127.773V184.339H143.066V178.104Z" fill="#F5F5F5"/>
<path d="M159.689 178.104H144.397V184.339H159.689V178.104Z" fill="#F5F5F5"/>
<path d="M176.32 178.104H161.028V184.339H176.32V178.104Z" fill="#F5F5F5"/>
<path d="M192.951 178.104H177.658V184.339H192.951V178.104Z" fill="#F5F5F5"/>
<path d="M209.575 178.104H194.282V184.339H209.575V178.104Z" fill="#F5F5F5"/>
<path d="M226.206 178.104H210.913V184.339H226.206V178.104Z" fill="#F5F5F5"/>
<path d="M242.837 178.104H227.544V184.339H242.837V178.104Z" fill="#F5F5F5"/>
<path d="M259.461 178.104H244.168V184.339H259.461V178.104Z" fill="#F5F5F5"/>
<path d="M276.092 178.104H260.799V184.339H276.092V178.104Z" fill="#F5F5F5"/>
<path d="M292.723 178.104H277.43V184.339H292.723V178.104Z" fill="#F5F5F5"/>
<path d="M309.346 178.104H294.054V184.339H309.346V178.104Z" fill="#F5F5F5"/>
<path d="M68.237 170.292H52.9442V176.527H68.237V170.292Z" fill="#F5F5F5"/>
<path d="M51.599 170.292H44.6252V176.527H51.599V170.292Z" fill="#F5F5F5"/>
<path d="M84.8609 170.292H69.5681V176.527H84.8609V170.292Z" fill="#F5F5F5"/>
<path d="M101.492 170.292H86.199V176.527H101.492V170.292Z" fill="#F5F5F5"/>
<path d="M118.123 170.292H102.83V176.527H118.123V170.292Z" fill="#F5F5F5"/>
<path d="M134.747 170.292H119.454V176.527H134.747V170.292Z" fill="#F5F5F5"/>
<path d="M151.378 170.292H136.085V176.527H151.378V170.292Z" fill="#F5F5F5"/>
<path d="M168.008 170.292H152.716V176.527H168.008V170.292Z" fill="#F5F5F5"/>
<path d="M184.632 170.292H169.339V176.527H184.632V170.292Z" fill="#F5F5F5"/>
<path d="M201.263 170.292H185.97V176.527H201.263V170.292Z" fill="#F5F5F5"/>
<path d="M217.894 170.292H202.601V176.527H217.894V170.292Z" fill="#F5F5F5"/>
<path d="M234.518 170.292H219.225V176.527H234.518V170.292Z" fill="#F5F5F5"/>
<path d="M251.149 170.292H235.856V176.527H251.149V170.292Z" fill="#F5F5F5"/>
<path d="M267.78 170.292H252.487V176.527H267.78V170.292Z" fill="#F5F5F5"/>
<path d="M284.404 170.292H269.111V176.527H284.404V170.292Z" fill="#F5F5F5"/>
<path d="M301.035 170.292H285.742V176.527H301.035V170.292Z" fill="#F5F5F5"/>
<path d="M309.346 170.292H302.373V176.527H309.346V170.292Z" fill="#F5F5F5"/>
<path d="M59.918 162.48H44.6252V168.715H59.918V162.48Z" fill="#F5F5F5"/>
<path d="M76.549 162.48H61.2561V168.715H76.549V162.48Z" fill="#F5F5F5"/>
<path d="M93.1799 162.48H77.8871V168.715H93.1799V162.48Z" fill="#F5F5F5"/>
<path d="M109.804 162.48H94.5109V168.715H109.804V162.48Z" fill="#F5F5F5"/>
<path d="M126.435 162.48H111.142V168.715H126.435V162.48Z" fill="#F5F5F5"/>
<path d="M143.066 162.48H127.773V168.715H143.066V162.48Z" fill="#F5F5F5"/>
<path d="M159.689 162.48H144.397V168.715H159.689V162.48Z" fill="#F5F5F5"/>
<path d="M176.32 162.48H161.028V168.715H176.32V162.48Z" fill="#F5F5F5"/>
<path d="M192.951 162.48H177.658V168.715H192.951V162.48Z" fill="#F5F5F5"/>
<path d="M209.575 162.48H194.282V168.715H209.575V162.48Z" fill="#F5F5F5"/>
<path d="M226.206 162.48H210.913V168.715H226.206V162.48Z" fill="#F5F5F5"/>
<path d="M242.837 162.48H227.544V168.715H242.837V162.48Z" fill="#F5F5F5"/>
<path d="M259.461 162.48H244.168V168.715H259.461V162.48Z" fill="#F5F5F5"/>
<path d="M276.092 162.48H260.799V168.715H276.092V162.48Z" fill="#F5F5F5"/>
<path d="M292.723 162.48H277.43V168.715H292.723V162.48Z" fill="#F5F5F5"/>
<path d="M309.346 162.48H294.054V168.715H309.346V162.48Z" fill="#F5F5F5"/>
<path d="M68.237 154.661H52.9442V160.896H68.237V154.661Z" fill="#F5F5F5"/>
<path d="M51.599 154.661H44.6252V160.896H51.599V154.661Z" fill="#F5F5F5"/>
<path d="M84.8609 154.661H69.5681V160.896H84.8609V154.661Z" fill="#F5F5F5"/>
<path d="M101.492 154.661H86.199V160.896H101.492V154.661Z" fill="#F5F5F5"/>
<path d="M118.123 154.661H102.83V160.896H118.123V154.661Z" fill="#F5F5F5"/>
<path d="M134.747 154.661H119.454V160.896H134.747V154.661Z" fill="#F5F5F5"/>
<path d="M151.378 154.661H136.085V160.896H151.378V154.661Z" fill="#F5F5F5"/>
<path d="M168.008 154.661H152.716V160.896H168.008V154.661Z" fill="#F5F5F5"/>
<path d="M184.632 154.661H169.339V160.896H184.632V154.661Z" fill="#F5F5F5"/>
<path d="M201.263 154.661H185.97V160.896H201.263V154.661Z" fill="#F5F5F5"/>
<path d="M217.894 154.661H202.601V160.896H217.894V154.661Z" fill="#F5F5F5"/>
<path d="M234.518 154.661H219.225V160.896H234.518V154.661Z" fill="#F5F5F5"/>
<path d="M251.149 154.661H235.856V160.896H251.149V154.661Z" fill="#F5F5F5"/>
<path d="M267.78 154.661H252.487V160.896H267.78V154.661Z" fill="#F5F5F5"/>
<path d="M284.404 154.661H269.111V160.896H284.404V154.661Z" fill="#F5F5F5"/>
<path d="M301.035 154.661H285.742V160.896H301.035V154.661Z" fill="#F5F5F5"/>
<path d="M309.346 154.661H302.373V160.896H309.346V154.661Z" fill="#F5F5F5"/>
<path d="M59.918 146.849H44.6252V153.084H59.918V146.849Z" fill="#F5F5F5"/>
<path d="M76.549 146.849H61.2561V153.084H76.549V146.849Z" fill="#F5F5F5"/>
<path d="M93.1799 146.849H77.8871V153.084H93.1799V146.849Z" fill="#F5F5F5"/>
<path d="M109.804 146.849H94.5109V153.084H109.804V146.849Z" fill="#F5F5F5"/>
<path d="M126.435 146.849H111.142V153.084H126.435V146.849Z" fill="#F5F5F5"/>
<path d="M143.066 146.849H127.773V153.084H143.066V146.849Z" fill="#F5F5F5"/>
<path d="M159.689 146.849H144.397V153.084H159.689V146.849Z" fill="#F5F5F5"/>
<path d="M176.32 146.849H161.028V153.084H176.32V146.849Z" fill="#F5F5F5"/>
<path d="M192.951 146.849H177.658V153.084H192.951V146.849Z" fill="#F5F5F5"/>
<path d="M209.575 146.849H194.282V153.084H209.575V146.849Z" fill="#F5F5F5"/>
<path d="M226.206 146.849H210.913V153.084H226.206V146.849Z" fill="#F5F5F5"/>
<path d="M242.837 146.849H227.544V153.084H242.837V146.849Z" fill="#F5F5F5"/>
<path d="M259.461 146.849H244.168V153.084H259.461V146.849Z" fill="#F5F5F5"/>
<path d="M276.092 146.849H260.799V153.084H276.092V146.849Z" fill="#F5F5F5"/>
<path d="M292.723 146.849H277.43V153.084H292.723V146.849Z" fill="#F5F5F5"/>
<path d="M309.346 146.849H294.054V153.084H309.346V146.849Z" fill="#F5F5F5"/>
<path d="M177 272C252.814 272 314.274 268.3 314.274 263.735C314.274 259.171 252.814 255.471 177 255.471C101.186 255.471 39.7259 259.171 39.7259 263.735C39.7259 268.3 101.186 272 177 272Z" fill="#F5F5F5"/>
<path d="M176.681 94.5531C176.681 94.5531 173.807 98.7803 170.564 98.7803C167.322 98.7803 163.704 94.5531 163.704 94.5531C163.704 94.5531 155.208 100.963 153.735 103.022C152.262 105.081 151.363 128.239 152.057 138.249C152.751 148.258 140.786 227.552 141.784 234.532C142.782 241.512 160.638 239.029 171.166 239.117C181.694 239.205 196.385 243.147 198.07 237.263C199.755 231.378 197.065 199.43 193.397 183.28C189.73 167.131 189.496 130.167 188.774 122.267C188.052 114.368 187.485 105.526 186.926 103.022C186.367 100.518 176.681 94.5531 176.681 94.5531Z" fill="#407BFF"/>
<path d="M156.468 183.302C156.639 188.72 156.326 194.143 155.533 199.503C154.967 203.109 154.422 203.978 150.74 203.212C148.411 202.722 146.025 201.474 143.618 202.27C142.811 202.54 142.089 203 141.31 203.372C139.511 204.175 137.487 204.19 135.525 204.197H121.719C118.512 204.197 115.397 204.927 115.064 200.941C113.754 185.193 114.123 169.343 115.241 153.595C115.524 149.653 115.857 145.717 116.218 141.775C116.53 138.395 117.436 134.591 116.926 131.218C115.992 125.151 116.013 119.077 116.154 112.893C116.211 110.25 115.51 104.511 117.195 102.219C118.696 100.167 128.297 94.5312 128.297 94.5312C128.297 94.5312 131.907 98.7584 135.15 98.7584C138.393 98.7584 141.274 94.5312 141.274 94.5312C141.274 94.5312 152.907 101.102 153.466 103.635C154.025 106.169 152.631 114.353 153.353 122.245C154.231 131.787 153.487 141.176 154.061 150.719C154.634 160.261 155.88 169.701 156.348 179.192C156.395 180.574 156.435 181.944 156.468 183.302Z" fill="#407BFF"/>
<path d="M118.944 181.112C119.115 186.53 118.802 191.953 118.009 197.312C117.443 200.919 116.898 201.788 113.216 201.021C110.88 200.532 108.501 199.276 106.087 200.079C105.28 200.35 104.557 200.81 103.779 201.182C101.98 201.985 99.9554 202 97.9943 202H84.1883C80.981 202 77.8729 202.73 77.5331 198.743C76.2233 182.996 76.5985 167.145 77.7172 151.398C78.0004 147.455 78.3237 143.515 78.6871 139.577C78.9986 136.197 79.912 132.393 79.3951 129.02C78.4606 122.953 80.6129 118.339 80.7545 112.156C80.8111 109.513 80.1102 103.774 81.7952 101.482C83.2962 99.4302 90.7727 92.3337 90.7727 92.3337C90.7727 92.3337 94.3835 96.5536 97.6261 96.5536C100.869 96.5536 103.75 92.3337 103.75 92.3337C103.75 92.3337 113.967 100.365 114.526 102.898C115.085 105.431 115.107 112.156 115.829 120.048C116.7 129.59 115.963 138.979 116.537 148.521C117.11 158.063 118.356 167.503 118.824 176.994C118.831 178.389 118.887 179.754 118.944 181.112Z" fill="#407BFF"/>
<path opacity="0.7" d="M118.944 181.112C119.115 186.53 118.802 191.953 118.009 197.312C117.443 200.919 116.898 201.788 113.216 201.021C110.88 200.532 108.501 199.276 106.087 200.079C105.28 200.35 104.557 200.81 103.779 201.182C101.98 201.985 99.9554 202 97.9943 202H84.1883C80.981 202 77.8729 202.73 77.5331 198.743C76.2233 182.996 76.5985 167.145 77.7172 151.398C78.0004 147.455 78.3237 143.515 78.6871 139.577C78.9986 136.197 79.912 132.393 79.3951 129.02C78.4606 122.953 80.6129 118.339 80.7545 112.156C80.8111 109.513 80.1102 103.774 81.7952 101.482C83.2962 99.4302 90.7727 92.3337 90.7727 92.3337C90.7727 92.3337 94.3835 96.5536 97.6261 96.5536C100.869 96.5536 103.75 92.3337 103.75 92.3337C103.75 92.3337 113.967 100.365 114.526 102.898C115.085 105.431 115.107 112.156 115.829 120.048C116.7 129.59 115.963 138.979 116.537 148.521C117.11 158.063 118.356 167.503 118.824 176.994C118.831 178.389 118.887 179.754 118.944 181.112Z" fill="white"/>
<path opacity="0.7" d="M156.468 183.302C156.639 188.72 156.326 194.143 155.533 199.503C154.967 203.109 154.422 203.978 150.74 203.212C148.411 202.722 146.025 201.474 143.618 202.27C142.811 202.54 142.089 203 141.31 203.372C139.511 204.175 137.487 204.19 135.525 204.197H121.719C118.512 204.197 115.397 204.927 115.064 200.941C113.754 185.193 114.123 169.343 115.241 153.595C115.524 149.653 115.857 145.717 116.218 141.775C116.53 138.395 117.436 134.591 116.926 131.218C115.992 125.151 116.013 119.077 116.154 112.893C116.211 110.25 115.51 104.511 117.195 102.219C118.696 100.167 128.297 94.5312 128.297 94.5312C128.297 94.5312 131.907 98.7584 135.15 98.7584C138.393 98.7584 141.274 94.5312 141.274 94.5312C141.274 94.5312 152.907 101.102 153.466 103.635C154.025 106.169 152.631 114.353 153.353 122.245C154.231 131.787 153.487 141.176 154.061 150.719C154.634 160.261 155.88 169.701 156.348 179.192C156.395 180.574 156.435 181.944 156.468 183.302Z" fill="white"/>
<path opacity="0.7" d="M176.681 94.5531C176.681 94.5531 173.807 98.7803 170.564 98.7803C167.322 98.7803 163.704 94.5531 163.704 94.5531C163.704 94.5531 155.208 100.963 153.735 103.022C152.262 105.081 151.363 128.239 152.057 138.249C152.751 148.258 140.786 227.552 141.784 234.532C142.782 241.512 160.638 239.029 171.166 239.117C181.694 239.205 196.385 243.147 198.07 237.263C199.755 231.378 197.065 199.43 193.397 183.28C189.73 167.131 189.496 130.167 188.774 122.267C188.052 114.368 187.485 105.526 186.926 103.022C186.367 100.518 176.681 94.5531 176.681 94.5531Z" fill="white"/>
<path d="M65.1997 254.799H67.7202V84.8649C67.7202 84.5745 67.8321 84.2959 68.0313 84.0905C68.2304 83.8851 68.5006 83.7698 68.7822 83.7698H200.555C200.837 83.7698 201.107 83.8851 201.306 84.0905C201.505 84.2959 201.617 84.5745 201.617 84.8649V254.799H203.996C204.278 254.799 204.548 254.915 204.747 255.12C204.946 255.325 205.058 255.604 205.058 255.894C205.058 256.185 204.946 256.463 204.747 256.669C204.548 256.874 204.278 256.989 203.996 256.989H196.166C195.884 256.989 195.614 256.874 195.415 256.669C195.215 256.463 195.104 256.185 195.104 255.894C195.104 255.604 195.215 255.325 195.415 255.12C195.614 254.915 195.884 254.799 196.166 254.799H199.493V85.96H69.8442V254.799H73.0302C73.3119 254.799 73.582 254.915 73.7812 255.12C73.9803 255.325 74.0922 255.604 74.0922 255.894C74.0922 256.185 73.9803 256.463 73.7812 256.669C73.582 256.874 73.3119 256.989 73.0302 256.989H65.1997C64.9181 256.989 64.648 256.874 64.4488 256.669C64.2496 256.463 64.1377 256.185 64.1377 255.894C64.1377 255.604 64.2496 255.325 64.4488 255.12C64.648 254.915 64.9181 254.799 65.1997 254.799Z" fill="#263238"/>
<path opacity="0.4" d="M65.1997 254.799H67.7202V84.8649C67.7202 84.5745 67.8321 84.2959 68.0313 84.0905C68.2304 83.8851 68.5006 83.7698 68.7822 83.7698H200.555C200.837 83.7698 201.107 83.8851 201.306 84.0905C201.505 84.2959 201.617 84.5745 201.617 84.8649V254.799H203.996C204.278 254.799 204.548 254.915 204.747 255.12C204.946 255.325 205.058 255.604 205.058 255.894C205.058 256.185 204.946 256.463 204.747 256.669C204.548 256.874 204.278 256.989 203.996 256.989H196.166C195.884 256.989 195.614 256.874 195.415 256.669C195.215 256.463 195.104 256.185 195.104 255.894C195.104 255.604 195.215 255.325 195.415 255.12C195.614 254.915 195.884 254.799 196.166 254.799H199.493V85.96H69.8442V254.799H73.0302C73.3119 254.799 73.582 254.915 73.7812 255.12C73.9803 255.325 74.0922 255.604 74.0922 255.894C74.0922 256.185 73.9803 256.463 73.7812 256.669C73.582 256.874 73.3119 256.989 73.0302 256.989H65.1997C64.9181 256.989 64.648 256.874 64.4488 256.669C64.2496 256.463 64.1377 256.185 64.1377 255.894C64.1377 255.604 64.2496 255.325 64.4488 255.12C64.648 254.915 64.9181 254.799 65.1997 254.799Z" fill="white"/>
<path d="M155.512 103.497C155.421 103.237 155.416 102.953 155.496 102.689C155.577 102.425 155.739 102.196 155.958 102.037L169.962 91.4357C170.022 91.3917 170.094 91.368 170.168 91.368C170.241 91.368 170.313 91.3917 170.373 91.4357L185.284 102.022C185.501 102.179 185.665 102.403 185.751 102.662C185.837 102.922 185.841 103.202 185.762 103.464C185.683 103.725 185.526 103.954 185.312 104.118C185.099 104.281 184.841 104.37 184.576 104.373H156.695C156.433 104.375 156.177 104.292 155.964 104.134C155.752 103.977 155.593 103.753 155.512 103.497ZM156.376 102.65C156.283 102.718 156.214 102.815 156.18 102.927C156.145 103.039 156.147 103.16 156.185 103.27C156.218 103.383 156.286 103.481 156.378 103.551C156.469 103.62 156.581 103.658 156.695 103.657H184.576C184.692 103.66 184.806 103.623 184.9 103.552C184.993 103.48 185.061 103.379 185.092 103.263C185.128 103.149 185.126 103.026 185.088 102.913C185.049 102.8 184.976 102.702 184.88 102.635L170.182 92.195L156.376 102.65Z" fill="#263238"/>
<path d="M170.175 92.1146C170.269 92.1146 170.359 92.0762 170.425 92.0077C170.492 91.9393 170.529 91.8464 170.529 91.7496V87.975C170.89 87.3764 172.398 84.7043 171.683 83.3536C171.524 83.0978 171.298 82.8936 171.031 82.7644C170.764 82.6352 170.467 82.5864 170.175 82.6235C168.957 82.6235 168.171 82.9229 167.846 83.5142C167.734 83.7584 167.682 84.0267 167.693 84.2962C167.704 84.5657 167.778 84.8285 167.909 85.062C167.933 85.1034 167.965 85.1395 168.003 85.1682C168.04 85.1969 168.083 85.2176 168.128 85.2291C168.174 85.2407 168.221 85.2428 168.267 85.2354C168.314 85.2281 168.358 85.2113 168.398 85.1861C168.475 85.1338 168.529 85.0528 168.548 84.9601C168.568 84.8674 168.552 84.7704 168.504 84.6897C168.435 84.5666 168.395 84.4291 168.385 84.2875C168.375 84.1459 168.396 84.0039 168.447 83.872C168.639 83.5361 169.247 83.3536 170.161 83.3536C170.869 83.3536 170.996 83.6383 171.046 83.726C171.471 84.529 170.543 86.5879 169.863 87.6976C169.828 87.7543 169.808 87.82 169.807 87.8874V91.7715C169.812 91.867 169.854 91.9565 169.923 92.0207C169.992 92.0849 170.082 92.1186 170.175 92.1146Z" fill="#263238"/>
<path d="M178.543 108.717L179.082 96.9625L181.751 99.0141L180.774 109.082L178.543 108.717Z" fill="#407BFF"/>
<path d="M162.252 109.082L161.183 96.9625L158.776 99.0141L159.399 109.082H162.252Z" fill="#407BFF"/>
<path opacity="0.2" d="M178.543 108.717L179.082 96.9625L181.751 99.0141L180.774 109.082L178.543 108.717Z" fill="black"/>
<path opacity="0.2" d="M162.252 109.082L161.183 96.9625L158.776 99.0141L159.399 109.082H162.252Z" fill="black"/>
<path d="M149.586 231.816C151.824 231.765 154.117 230.955 156.241 231.67C157.318 232.028 158.245 232.751 159.286 233.203C161.842 234.291 164.78 233.598 167.357 232.554C169.934 231.51 172.419 230.1 175.145 229.743C180.158 229.108 185.057 232.079 190.084 231.838C192.364 231.729 197.128 230.597 197.631 228.005C197.612 227.388 197.51 226.776 197.327 226.187C197.022 224.326 196.732 222.457 196.428 220.588L193.475 202.182L185.723 153.88C184.519 146.404 183.318 138.928 182.119 131.452L181.63 128.407C181.63 128.239 181.581 128.079 181.552 127.911L181.999 124.99C182.603 121.024 183.202 117.059 183.797 113.097L184.505 108.33C184.625 107.916 184.657 107.48 184.597 107.052C184.57 106.962 184.527 106.877 184.469 106.804C183.684 105.796 180.866 105.877 179.782 106.037C177.991 106.293 176.349 107.147 174.635 107.724C170.894 108.918 166.895 108.961 163.13 107.848C161.978 107.449 160.793 107.161 159.59 106.986C158.174 106.862 156.256 107.133 156.355 108.855C156.425 109.5 156.526 110.141 156.659 110.776C157.716 117.307 158.767 123.839 159.81 130.371V130.488C159.711 131.145 159.604 131.809 159.498 132.466L155.824 155.479C153.289 171.341 150.757 187.203 148.227 203.066C147.255 209.164 146.282 215.263 145.31 221.361C144.644 225.596 142.669 231.977 149.586 231.816Z" fill="#407BFF"/>
<path opacity="0.2" d="M159.512 132.43C160.886 133.021 163.959 134.058 166.755 133.05C170.486 131.707 174.543 135.825 179.138 133.474C180.22 132.937 181.229 132.257 182.14 131.452L181.652 128.407C180.306 129.729 178.253 131.079 175.818 130.546C171.421 129.583 169.276 128.86 165.679 130.67C163.605 131.707 161.353 131.13 159.824 130.451C159.725 131.108 159.619 131.773 159.512 132.43Z" fill="black"/>
<path d="M119.815 103.497C119.724 103.237 119.718 102.953 119.799 102.689C119.879 102.425 120.042 102.196 120.261 102.037L134.265 91.4357C134.325 91.3917 134.397 91.368 134.47 91.368C134.544 91.368 134.616 91.3917 134.676 91.4357L149.586 102.022C149.804 102.179 149.967 102.403 150.053 102.662C150.139 102.922 150.143 103.202 150.064 103.464C149.986 103.725 149.828 103.954 149.615 104.118C149.402 104.281 149.144 104.37 148.878 104.373H120.997C120.735 104.375 120.48 104.292 120.267 104.134C120.054 103.977 119.896 103.753 119.815 103.497ZM120.679 102.65C120.586 102.718 120.517 102.815 120.482 102.927C120.448 103.039 120.45 103.16 120.487 103.27C120.521 103.383 120.588 103.481 120.68 103.551C120.772 103.62 120.883 103.658 120.997 103.657H148.878C148.993 103.655 149.105 103.616 149.197 103.545C149.289 103.473 149.357 103.374 149.39 103.26C149.424 103.147 149.422 103.025 149.385 102.913C149.348 102.801 149.277 102.703 149.183 102.635L134.52 92.195L120.679 102.65Z" fill="#263238"/>
<path d="M134.477 92.1146C134.571 92.1146 134.661 92.0762 134.728 92.0077C134.794 91.9393 134.831 91.8464 134.831 91.7496V87.975C135.193 87.3764 136.701 84.7043 135.986 83.3536C135.826 83.0978 135.6 82.8936 135.334 82.7644C135.067 82.6352 134.77 82.5864 134.477 82.6235C133.26 82.6235 132.474 82.9229 132.148 83.5142C132.037 83.7584 131.985 84.0267 131.996 84.2962C132.007 84.5657 132.081 84.8285 132.212 85.062C132.261 85.1435 132.338 85.202 132.429 85.2249C132.519 85.2477 132.614 85.2332 132.694 85.1844C132.774 85.1356 132.832 85.0564 132.855 84.9638C132.879 84.8713 132.867 84.7728 132.821 84.6897C132.752 84.5666 132.711 84.4291 132.702 84.2875C132.692 84.1459 132.713 84.0039 132.764 83.872C132.955 83.5361 133.564 83.3536 134.477 83.3536C135.185 83.3536 135.313 83.6383 135.362 83.726C135.787 84.529 134.86 86.5879 134.18 87.6976C134.145 87.7543 134.125 87.82 134.123 87.8874V91.7715C134.129 91.8645 134.169 91.9518 134.234 92.0156C134.3 92.0794 134.387 92.1148 134.477 92.1146Z" fill="#263238"/>
<path d="M141.699 95.8453C141.699 95.8453 136.686 99.5761 134.081 99.5761C131.476 99.5761 127.936 95.4657 127.936 95.4657L121.627 99.9046C120.7 100.554 118.725 101.416 118.087 102.387C117.096 103.913 119.121 107.446 120.112 108.87C120.371 109.19 120.574 109.553 120.714 109.943C120.774 110.263 120.803 110.588 120.799 110.914C120.933 113.272 122.987 114.514 123.376 116.638C123.581 117.762 123.164 119.113 123.065 120.289C122.909 122.121 122.767 123.939 122.619 125.793C122.18 131.22 121.743 136.645 121.309 142.067C120.266 154.902 119.23 167.732 118.201 180.557C117.795 185.522 117.393 190.484 116.997 195.443C116.926 196.305 116.473 198.006 116.947 198.7C117.605 199.12 118.303 199.469 119.029 199.744C120.685 200.443 122.44 200.865 124.226 200.992C129.182 201.613 134.336 202.233 139.172 200.868C139.979 200.608 140.799 200.391 141.628 200.218C143.929 199.853 146.273 200.671 148.595 200.481C150.57 200.328 151.887 198.933 153.671 198.546C152.963 192.107 152.418 185.529 151.767 179.031C150.507 166.41 149.244 153.79 147.979 141.169L146.407 125.428L145.876 120.135C145.743 119.304 145.658 118.465 145.621 117.624C145.685 115.667 147.476 114.01 148.645 112.513C148.919 112.192 149.157 111.839 149.353 111.462C149.509 111.09 149.621 110.701 149.685 110.301C150.216 107.819 151.363 105.789 152.581 103.635C149.685 100.54 145.19 98.2984 141.699 95.8453Z" fill="#263238"/>
<path opacity="0.5" d="M116.955 198.67C117.611 199.091 118.309 199.438 119.036 199.707C120.691 200.413 122.446 200.837 124.233 200.963C129.189 201.583 134.336 202.204 139.179 200.839C139.986 200.579 140.806 200.362 141.635 200.189C143.936 199.824 146.28 200.642 148.602 200.452C150.577 200.298 151.887 198.904 153.678 198.517C152.97 192.078 152.418 185.5 151.774 179.002C150.514 166.381 149.251 153.76 147.986 141.14L146.414 125.399L145.883 120.106C145.746 119.275 145.661 118.436 145.629 117.595C145.652 117.036 145.794 116.49 146.046 115.996C146.788 114.735 147.662 113.562 148.652 112.499C148.926 112.177 149.164 111.825 149.36 111.447C149.513 111.075 149.625 110.685 149.692 110.286C150.223 107.804 151.363 105.774 152.588 103.621C149.65 100.54 145.154 98.2984 141.671 95.8453C141.671 95.8453 136.658 99.5761 134.053 99.5761C131.447 99.5761 127.907 95.4657 127.907 95.4657L121.592 99.9046C120.664 100.554 118.689 101.416 118.052 102.387C117.061 103.913 119.086 107.446 120.077 108.87C120.335 109.189 120.537 109.552 120.672 109.943C120.738 110.262 120.769 110.588 120.764 110.914C120.884 112.988 122.484 114.192 123.135 115.901C123.223 116.138 123.291 116.382 123.341 116.631C123.546 117.755 123.128 119.106 123.029 120.281C122.873 122.114 122.732 123.932 122.583 125.786C122.144 131.213 121.708 136.638 121.273 142.06C120.23 154.895 119.194 167.725 118.165 180.55C117.759 185.514 117.358 190.476 116.962 195.436C116.933 196.276 116.473 197.977 116.955 198.67Z" fill="white"/>
<path opacity="0.2" d="M116.955 198.67C117.611 199.091 118.309 199.438 119.036 199.707C120.691 200.413 122.446 200.837 124.233 200.963C129.189 201.583 134.336 202.204 139.179 200.839C139.986 200.579 140.806 200.362 141.635 200.189C143.936 199.824 146.28 200.642 148.602 200.452C150.577 200.298 151.887 198.904 153.678 198.517C152.97 192.078 152.418 185.5 151.774 179.002C150.514 166.381 149.251 153.761 147.986 141.14L146.414 125.399L145.883 120.106C145.746 119.275 145.661 118.437 145.629 117.595C145.652 117.036 145.794 116.49 146.046 115.996C144.065 116.147 142.075 116.12 140.099 115.915C137.621 115.528 136.198 114.952 133.083 115.915C130.336 116.762 126.052 115.631 123.171 115.915C123.258 116.153 123.327 116.397 123.376 116.645C123.581 117.77 123.164 119.12 123.065 120.296C122.909 122.128 122.767 123.946 122.619 125.801C122.18 131.228 121.743 136.652 121.309 142.074C120.266 154.909 119.23 167.739 118.201 180.564C117.795 185.529 117.393 190.491 116.997 195.451C116.933 196.276 116.473 197.977 116.955 198.67Z" fill="black"/>
<path d="M82.7015 103.497C82.6093 103.237 82.6031 102.952 82.6838 102.688C82.7644 102.424 82.9275 102.195 83.1475 102.037L97.1518 91.4357C97.2117 91.3917 97.2835 91.368 97.3571 91.368C97.4307 91.368 97.5025 91.3917 97.5624 91.4357L112.473 102.022C112.69 102.179 112.854 102.403 112.94 102.662C113.026 102.922 113.03 103.202 112.951 103.464C112.872 103.725 112.715 103.954 112.502 104.118C112.289 104.281 112.031 104.37 111.765 104.373H83.8839C83.6218 104.376 83.3656 104.293 83.1527 104.136C82.9399 103.978 82.7818 103.754 82.7015 103.497ZM83.544 102.65C83.4501 102.717 83.3804 102.814 83.3458 102.926C83.3113 103.039 83.3137 103.16 83.3529 103.27C83.3853 103.383 83.4526 103.482 83.5447 103.552C83.6367 103.622 83.7483 103.659 83.8626 103.657H111.744C111.859 103.655 111.97 103.616 112.062 103.545C112.154 103.473 112.222 103.374 112.256 103.26C112.29 103.147 112.288 103.025 112.25 102.913C112.213 102.801 112.142 102.703 112.048 102.635L97.35 92.195L83.544 102.65Z" fill="#263238"/>
<path d="M97.3642 92.1147C97.458 92.1147 97.5481 92.0762 97.6145 92.0078C97.6809 91.9393 97.7182 91.8465 97.7182 91.7496V87.9751C98.0722 87.3764 99.5873 84.7043 98.8651 83.3537C98.7077 83.0978 98.4831 82.8934 98.2173 82.7641C97.9516 82.6349 97.6557 82.5861 97.3642 82.6236C96.1464 82.6236 95.3605 82.9229 95.0278 83.5143C94.9187 83.7593 94.8683 84.0278 94.8806 84.2971C94.8929 84.5664 94.9676 84.8287 95.0986 85.0621C95.1473 85.1435 95.2251 85.202 95.3152 85.2249C95.4053 85.2478 95.5006 85.2333 95.5804 85.1844C95.6603 85.1356 95.7183 85.0564 95.7421 84.9639C95.7658 84.8714 95.7534 84.7729 95.7074 84.6897C95.6391 84.5667 95.598 84.4296 95.587 84.2882C95.576 84.1469 95.5953 84.0048 95.6437 83.872C95.8349 83.5362 96.4438 83.3537 97.3642 83.3537C98.0722 83.3537 98.1996 83.6384 98.2492 83.726C98.674 84.5291 97.7465 86.5879 97.0668 87.6977C97.0313 87.7543 97.0117 87.82 97.0102 87.8875V91.7715C97.0156 91.8645 97.0553 91.9518 97.1211 92.0156C97.1869 92.0794 97.2738 92.1149 97.3642 92.1147Z" fill="#263238"/>
<path d="M108.89 98.6343C108.975 98.7 108.522 105.001 108.692 105.731C109.103 107.497 110.278 108.877 110.682 110.549C111.291 113.112 111.014 116.302 111.17 118.945C111.807 130.028 112.367 141.111 112.926 152.201C113.061 154.931 113.202 157.662 113.337 160.392C113.528 164.152 113.011 167.919 113.096 171.686C113.16 174.337 114.137 179.783 112.784 182.127C111.432 184.47 103.871 183.207 101.407 183.193L91.2824 183.098C89.1089 183.098 86.9141 183.171 84.7476 183.047C83.1971 182.959 83.105 183.134 82.4324 181.754C81.7598 180.374 81.9439 177.783 81.9368 176.257C81.8448 156.756 83.1688 137.117 83.6431 117.558L83.7847 111.856C83.7847 111.856 87.8628 104.066 86.1353 99.379L90.4258 95.254C90.4258 95.254 95.2826 98.9044 97.8244 98.4518C100.366 97.9991 103.821 94.5531 103.821 94.5531L108.89 98.6343Z" fill="#407BFF"/>
<path opacity="0.2" d="M108.89 98.6343C108.975 98.7 108.522 105.001 108.692 105.731C109.103 107.497 110.278 108.877 110.682 110.549C111.291 113.112 111.014 116.302 111.17 118.945C111.807 130.028 112.367 141.111 112.926 152.201C113.061 154.931 113.202 157.662 113.337 160.392C113.528 164.152 113.011 167.919 113.096 171.686C113.16 174.337 114.137 179.783 112.784 182.127C111.432 184.47 103.871 183.207 101.407 183.193L91.2824 183.098C89.1089 183.098 86.9141 183.171 84.7476 183.047C83.1971 182.959 83.105 183.134 82.4324 181.754C81.7598 180.374 81.9439 177.783 81.9368 176.257C81.8448 156.756 83.1688 137.117 83.6431 117.558L83.7847 111.856C83.7847 111.856 87.8628 104.066 86.1353 99.379L90.4258 95.254C90.4258 95.254 95.2826 98.9044 97.8244 98.4518C100.366 97.9991 103.821 94.5531 103.821 94.5531L108.89 98.6343Z" fill="black"/>
<path d="M97.35 98.4884C97.35 98.4884 95.0348 104.329 93.7321 104.387C92.4294 104.446 87.1902 97.9262 87.1902 97.9262C87.1902 97.9262 89.3142 94.0641 90.178 94.0641C91.0417 94.0641 97.35 98.4884 97.35 98.4884Z" fill="#407BFF"/>
<path d="M97.35 98.4883C97.35 98.4883 102.787 93.8669 103.722 94.064C104.657 94.2611 107.347 97.3859 107.347 97.3859C107.347 97.3859 102.603 104.314 101.109 104.387C99.6156 104.46 97.35 98.4883 97.35 98.4883Z" fill="#407BFF"/>
<path opacity="0.2" d="M118.944 181.112C119.115 186.53 118.802 191.953 118.009 197.312C117.443 200.919 116.898 201.788 113.216 201.021C110.88 200.532 108.501 199.276 106.087 200.079C105.28 200.35 104.557 200.81 103.779 201.182C101.98 201.985 99.9554 202 97.9943 202H84.1883C80.981 202 77.8729 202.73 77.5331 198.743C76.2233 182.996 76.5985 167.145 77.7172 151.398C78.0004 147.455 78.3237 143.515 78.6871 139.577C78.9986 136.197 79.912 132.393 79.3951 129.02C78.4606 122.953 80.6129 118.339 80.7545 112.156C80.8111 109.513 80.1102 103.774 81.7952 101.482C83.2962 99.4302 90.7727 92.3337 90.7727 92.3337C90.7727 92.3337 94.3835 96.5536 97.6261 96.5536C100.869 96.5536 103.75 92.3337 103.75 92.3337C103.75 92.3337 113.967 100.365 114.526 102.898C115.085 105.431 115.107 112.156 115.829 120.048C116.7 129.59 115.963 138.979 116.537 148.521C117.11 158.063 118.356 167.503 118.824 176.994C118.831 178.389 118.887 179.754 118.944 181.112Z" fill="white"/>
<path opacity="0.2" d="M156.468 183.302C156.639 188.72 156.326 194.143 155.533 199.503C154.967 203.109 154.422 203.978 150.74 203.212C148.411 202.722 146.025 201.474 143.618 202.27C142.811 202.54 142.089 203 141.31 203.372C139.511 204.175 137.487 204.19 135.525 204.197H121.719C118.512 204.197 115.397 204.927 115.064 200.941C113.754 185.193 114.123 169.343 115.241 153.595C115.524 149.653 115.857 145.717 116.218 141.775C116.53 138.395 117.436 134.591 116.926 131.218C115.992 125.151 116.013 119.077 116.154 112.893C116.211 110.25 115.51 104.511 117.195 102.219C118.696 100.167 128.297 94.5312 128.297 94.5312C128.297 94.5312 131.907 98.7584 135.15 98.7584C138.393 98.7584 141.274 94.5312 141.274 94.5312C141.274 94.5312 152.907 101.102 153.466 103.635C154.025 106.169 152.631 114.353 153.353 122.245C154.231 131.787 153.487 141.176 154.061 150.719C154.634 160.261 155.88 169.701 156.348 179.192C156.395 180.574 156.435 181.944 156.468 183.302Z" fill="white"/>
<path opacity="0.2" d="M176.681 94.5531C176.681 94.5531 173.807 98.7803 170.564 98.7803C167.322 98.7803 163.704 94.5531 163.704 94.5531C163.704 94.5531 155.208 100.963 153.735 103.022C152.262 105.081 151.363 128.239 152.057 138.249C152.751 148.258 140.786 227.552 141.784 234.532C142.782 241.512 160.638 239.029 171.166 239.117C181.694 239.205 196.385 243.147 198.07 237.263C199.755 231.378 197.065 199.43 193.397 183.28C189.73 167.131 189.496 130.167 188.774 122.267C188.052 114.368 187.485 105.526 186.926 103.022C186.367 100.518 176.681 94.5531 176.681 94.5531Z" fill="white"/>
<path d="M130.782 264.064H235.219V168.678H130.782V264.064Z" fill="#407BFF"/>
<path opacity="0.6" d="M130.782 264.064H235.219V168.678H130.782V264.064Z" fill="#FAFAFA"/>
<path opacity="0.3" d="M130.775 264.064H190.671V168.678H130.775V264.064Z" fill="white"/>
<path opacity="0.2" d="M190.679 177.753H130.782V179.009H190.679V177.753Z" fill="black"/>
<path opacity="0.2" d="M235.219 249.959H130.782V251.572H235.219V249.959Z" fill="black"/>
<path opacity="0.2" d="M175.584 173.168C175.584 173.388 175.521 173.602 175.403 173.785C175.284 173.967 175.116 174.11 174.92 174.194C174.723 174.278 174.507 174.3 174.298 174.257C174.089 174.214 173.897 174.108 173.747 173.953C173.596 173.798 173.494 173.6 173.452 173.385C173.411 173.17 173.432 172.947 173.514 172.744C173.595 172.541 173.733 172.368 173.91 172.246C174.087 172.124 174.295 172.059 174.508 172.059C174.793 172.059 175.067 172.176 175.269 172.384C175.471 172.592 175.584 172.874 175.584 173.168Z" fill="black"/>
<path opacity="0.2" d="M179.747 173.168C179.748 173.39 179.686 173.607 179.567 173.792C179.449 173.977 179.28 174.121 179.082 174.206C178.883 174.292 178.665 174.315 178.454 174.272C178.243 174.229 178.05 174.122 177.898 173.966C177.746 173.809 177.643 173.609 177.601 173.392C177.559 173.175 177.582 172.949 177.664 172.745C177.747 172.541 177.887 172.366 178.066 172.244C178.246 172.122 178.456 172.057 178.671 172.059C178.956 172.059 179.23 172.176 179.432 172.384C179.634 172.592 179.747 172.874 179.747 173.168Z" fill="black"/>
<path opacity="0.2" d="M141.473 174.278C142.067 174.278 142.549 173.781 142.549 173.168C142.549 172.556 142.067 172.059 141.473 172.059C140.878 172.059 140.396 172.556 140.396 173.168C140.396 173.781 140.878 174.278 141.473 174.278Z" fill="black"/>
<path opacity="0.2" d="M146.698 173.168C146.698 173.388 146.634 173.602 146.516 173.785C146.398 173.967 146.23 174.11 146.033 174.194C145.837 174.278 145.62 174.3 145.411 174.257C145.203 174.214 145.011 174.108 144.86 173.953C144.71 173.798 144.607 173.6 144.566 173.385C144.524 173.17 144.546 172.947 144.627 172.744C144.709 172.541 144.847 172.368 145.024 172.246C145.201 172.124 145.409 172.059 145.621 172.059C145.907 172.059 146.181 172.176 146.382 172.384C146.584 172.592 146.698 172.874 146.698 173.168Z" fill="black"/>
<path opacity="0.2" d="M168.915 170.474H151.236C150.814 170.474 150.471 170.827 150.471 171.263V175.074C150.471 175.509 150.814 175.863 151.236 175.863H168.915C169.337 175.863 169.679 175.509 169.679 175.074V171.263C169.679 170.827 169.337 170.474 168.915 170.474Z" fill="black"/>
<path opacity="0.3" d="M137.55 181.521H134.371C133.879 181.521 133.479 181.932 133.479 182.441V188.142C133.479 188.651 133.879 189.062 134.371 189.062H137.55C138.043 189.062 138.442 188.651 138.442 188.142V182.441C138.442 181.932 138.043 181.521 137.55 181.521Z" fill="white"/>
<path opacity="0.1" d="M137.529 184.711C137.529 185.938 136.821 186.901 135.957 186.901C135.093 186.901 134.393 185.908 134.393 184.711C134.393 183.514 135.101 182.484 135.957 182.484C136.814 182.484 137.529 183.47 137.529 184.711Z" fill="black"/>
<path opacity="0.1" d="M137.614 187.566H134.301V188.128H137.614V187.566Z" fill="black"/>
<path d="M160.072 241.658C170.879 241.658 179.641 229.348 179.641 214.163C179.641 198.978 170.879 186.668 160.072 186.668C149.264 186.668 140.503 198.978 140.503 214.163C140.503 229.348 149.264 241.658 160.072 241.658Z" fill="#263238"/>
<path opacity="0.2" d="M179.641 214.163C179.641 229.349 170.883 241.658 160.072 241.658H159.739C170.401 241.417 178.982 229.203 178.982 214.17C178.982 199.138 170.401 186.902 159.739 186.675H160.072C170.883 186.668 179.641 198.977 179.641 214.163Z" fill="black"/>
<path opacity="0.3" d="M160.072 241.658C170.879 241.658 179.641 229.348 179.641 214.163C179.641 198.978 170.879 186.668 160.072 186.668C149.264 186.668 140.503 198.978 140.503 214.163C140.503 229.348 149.264 241.658 160.072 241.658Z" fill="white"/>
<path opacity="0.3" d="M176.342 214.163C176.342 226.267 170.281 236.313 162.422 238C161.649 238.166 160.862 238.252 160.072 238.255C157.943 238.243 155.856 237.646 154.025 236.525C153.559 236.251 153.109 235.946 152.68 235.613C149.971 233.446 147.837 230.608 146.478 227.363C145.872 225.997 145.373 224.583 144.984 223.135C144.814 222.515 144.659 221.887 144.524 221.237C144.047 218.911 143.81 216.54 143.816 214.163C143.816 200.882 151.108 190.07 160.1 190.07C160.89 190.071 161.677 190.154 162.451 190.318C163.65 190.583 164.804 191.028 165.877 191.64C166.26 191.851 166.628 192.092 167.003 192.37C167.892 192.99 168.717 193.702 169.467 194.494C171.663 196.863 173.352 199.681 174.423 202.766C174.645 203.345 174.843 203.937 175.018 204.54C175.917 207.663 176.363 210.905 176.342 214.163Z" fill="white"/>
<path d="M176.342 214.163C176.342 226.267 170.281 236.313 162.422 238C154.571 236.306 148.51 226.26 148.51 214.163C148.51 202.065 154.571 192.019 162.422 190.325C170.281 192.012 176.342 202.065 176.342 214.163Z" fill="#263238"/>
<path d="M125.748 241.658C137.248 241.658 146.57 229.348 146.57 214.163C146.57 198.978 137.248 186.668 125.748 186.668C114.248 186.668 104.926 198.978 104.926 214.163C104.926 229.348 114.248 241.658 125.748 241.658Z" fill="#407BFF"/>
<path opacity="0.2" d="M104.933 214.163C104.933 229.348 114.25 241.658 125.755 241.658H126.102C114.774 241.417 105.634 229.202 105.634 214.17C105.634 199.138 114.76 186.931 126.102 186.682H125.755C114.25 186.668 104.933 198.977 104.933 214.163Z" fill="black"/>
<path opacity="0.2" d="M127.157 239.613C137.491 239.613 145.869 228.219 145.869 214.163C145.869 200.107 137.491 188.712 127.157 188.712C116.822 188.712 108.444 200.107 108.444 214.163C108.444 228.219 116.822 239.613 127.157 239.613Z" fill="black"/>
<path d="M129.805 238.109C139.271 238.109 146.945 227.388 146.945 214.163C146.945 200.937 139.271 190.216 129.805 190.216C120.338 190.216 112.664 200.937 112.664 214.163C112.664 227.388 120.338 238.109 129.805 238.109Z" fill="#407BFF"/>
<path opacity="0.5" d="M144.142 214.163C144.142 225.297 137.897 234.7 130.506 234.7C128.444 234.673 126.442 233.984 124.778 232.729C124.31 232.393 123.865 232.025 123.447 231.626C120.749 228.935 118.825 225.526 117.889 221.778C117.435 220.107 117.134 218.396 116.99 216.667C116.929 215.893 116.893 215.112 116.884 214.323V214.155C116.884 203.022 123.121 193.618 130.506 193.618C131.376 193.616 132.241 193.744 133.076 193.998C133.539 194.137 133.991 194.313 134.428 194.523C135.455 195.013 136.409 195.653 137.26 196.422C139.692 198.696 141.52 201.573 142.57 204.781C142.782 205.387 142.974 206.015 143.143 206.65C143.804 209.096 144.14 211.624 144.142 214.163Z" fill="white"/>
<path opacity="0.2" d="M144.843 214.163C144.843 225.296 138.605 234.7 131.207 234.7C130.733 234.701 130.259 234.664 129.791 234.59C136.545 233.488 142.011 224.581 142.011 214.148C142.011 203.715 136.545 194.823 129.791 193.706C130.259 193.626 130.732 193.587 131.207 193.589C138.605 193.625 144.843 203.029 144.843 214.163Z" fill="black"/>
<path opacity="0.1" d="M133.104 194.005C127.053 200.197 121.628 207.007 116.912 214.331V214.163C116.912 203.029 123.15 193.625 130.534 193.625C131.404 193.623 132.27 193.751 133.104 194.005Z" fill="white"/>
<path opacity="0.1" d="M137.274 196.429C129.817 204.016 123.305 212.531 117.889 221.778C117.435 220.107 117.134 218.396 116.99 216.667C122.001 208.651 127.848 201.225 134.428 194.524C135.461 195.014 136.419 195.656 137.274 196.429Z" fill="white"/>
<path opacity="0.1" d="M143.158 206.657C135.99 214.519 129.806 223.275 124.75 232.721C124.282 232.386 123.837 232.018 123.419 231.619C128.641 221.86 135.067 212.84 142.535 204.781C142.797 205.394 143.016 206.022 143.158 206.657Z" fill="white"/>
<path d="M104.869 189.325C105.542 190.464 106.285 191.705 106.993 192.866C107.701 194.027 108.487 195.203 109.259 196.312C110.01 197.399 110.816 198.444 111.673 199.444C112.06 199.889 112.468 200.313 112.898 200.715C113.08 200.884 113.271 201.042 113.471 201.189L113.648 201.321L113.818 201.408C114.775 201.703 115.784 201.77 116.77 201.605C118.054 201.461 119.325 201.217 120.572 200.875C123.211 200.149 125.811 199.279 128.36 198.269H128.417C128.801 198.119 129.227 198.133 129.601 198.307C129.975 198.481 130.268 198.8 130.414 199.196C130.535 199.535 130.543 199.905 130.436 200.249C130.33 200.593 130.115 200.891 129.826 201.094C127.378 202.804 124.769 204.255 122.038 205.424C120.604 206.041 119.121 206.529 117.606 206.884C116.776 207.07 115.933 207.185 115.085 207.227C114.09 207.285 113.093 207.175 112.133 206.898C111.852 206.818 111.578 206.715 111.312 206.592C111.049 206.477 110.794 206.345 110.547 206.198C110.143 205.961 109.753 205.7 109.379 205.416C108.703 204.902 108.062 204.341 107.46 203.737C106.354 202.624 105.32 201.436 104.366 200.182C102.517 197.77 100.86 195.209 99.4103 192.523C99.0249 191.791 98.9303 190.934 99.1463 190.131C99.3624 189.329 99.8722 188.644 100.568 188.222C101.264 187.799 102.092 187.672 102.877 187.867C103.663 188.062 104.344 188.564 104.777 189.267L104.869 189.325Z" fill="#EABDBD"/>
<path opacity="0.2" d="M104.869 189.325C105.542 190.464 106.285 191.705 106.993 192.866C107.701 194.027 108.487 195.203 109.259 196.312C110.01 197.399 110.816 198.444 111.673 199.444C112.06 199.889 112.468 200.313 112.898 200.715C113.08 200.884 113.271 201.042 113.471 201.189L113.648 201.321L113.818 201.408C114.775 201.703 115.784 201.77 116.77 201.605C118.054 201.461 119.325 201.217 120.572 200.875C123.211 200.149 125.811 199.279 128.36 198.269H128.417C128.801 198.119 129.227 198.133 129.601 198.307C129.975 198.481 130.268 198.8 130.414 199.196C130.535 199.535 130.543 199.905 130.436 200.249C130.33 200.593 130.115 200.891 129.826 201.094C127.378 202.804 124.769 204.255 122.038 205.424C120.604 206.041 119.121 206.529 117.606 206.884C116.776 207.07 115.933 207.185 115.085 207.227C114.09 207.285 113.093 207.175 112.133 206.898C111.852 206.818 111.578 206.715 111.312 206.592C111.049 206.477 110.794 206.345 110.547 206.198C110.143 205.961 109.753 205.7 109.379 205.416C108.703 204.902 108.062 204.341 107.46 203.737C106.354 202.624 105.32 201.436 104.366 200.182C102.517 197.77 100.86 195.209 99.4103 192.523C99.0249 191.791 98.9303 190.934 99.1463 190.131C99.3624 189.329 99.8722 188.644 100.568 188.222C101.264 187.799 102.092 187.672 102.877 187.867C103.663 188.062 104.344 188.564 104.777 189.267L104.869 189.325Z" fill="black"/>
<path d="M103.941 187.785C105.527 188.887 107.793 193.151 107.793 193.151L102.129 197.867L99.8492 196.115L103.941 187.785Z" fill="#263238"/>
<path opacity="0.3" d="M107.793 193.151L104.161 196.188L102.157 197.867L101.825 197.612L99.8847 196.115L102.292 191.158L103.934 187.785C105.195 188.654 106.88 191.516 107.517 192.669L107.793 193.151Z" fill="white"/>
<path d="M108.444 193.538L104.246 196.787L102.15 198.408L101.768 197.663L101.825 197.612L104.062 195.67L107.524 192.669L107.793 192.436L108.444 193.538Z" fill="#263238"/>
<path opacity="0.2" d="M104.246 196.787L102.122 198.407L101.725 197.677L101.789 197.626L99.8492 196.13L102.256 191.172C103.055 192.578 103.667 194.088 104.076 195.662C104.118 195.838 104.147 196.013 104.175 196.181C104.209 196.381 104.232 196.584 104.246 196.787Z" fill="black"/>
<path d="M127.121 199.014L130.725 196.349L131.603 201.62C131.603 201.62 128.771 202.635 126.477 200.846L127.121 199.014Z" fill="#FFC3BD"/>
<path d="M135.086 196.575L135.03 200.62L131.603 201.62L130.725 196.349L135.086 196.575Z" fill="#FFC3BD"/>
<path d="M81.0164 253.631L78.2552 259.954L72.0956 259.041L67.4228 258.34L61.6456 257.479L64.6262 254.872L69.2566 254.522L73.7028 254.186L81.0164 253.631Z" fill="#EEC1BB"/>
<path opacity="0.2" d="M73.7028 254.186L72.0957 259.041L67.4229 258.34L69.2566 254.522L73.7028 254.186Z" fill="black"/>
<path d="M67.26 255.033C67.5574 255.347 63.6563 258.961 63.6563 258.961C63.6563 258.961 59.0614 258.961 56.3497 260.735C53.6381 262.509 53.5177 259.866 55.9674 257.289L62.0208 250.93C63.72 249.097 64.1448 251.769 67.26 255.033Z" fill="#407BFF"/>
<path d="M63.3518 258.851H63.4085H63.451V258.895C63.7649 259.506 63.8721 260.207 63.7554 260.888C63.7122 261.001 63.6464 261.103 63.5621 261.187C63.4779 261.271 63.3773 261.336 63.2669 261.377C63.1793 261.426 63.0795 261.445 62.9808 261.433C62.8821 261.422 62.7893 261.379 62.7146 261.312C62.5306 261.1 62.5943 260.625 62.7146 260.151C62.4831 260.487 62.1674 260.752 61.8013 260.917C61.7265 260.942 61.6476 260.95 61.5695 260.942C61.4914 260.933 61.416 260.907 61.3482 260.866C61.2535 260.827 61.1732 260.758 61.1185 260.668C61.0639 260.579 61.0378 260.475 61.0438 260.37C61.0749 260.204 61.1568 260.053 61.2774 259.939C61.9022 259.455 62.6042 259.086 63.3518 258.851ZM63.0828 259.267C62.304 259.603 61.4261 260.1 61.4048 260.428C61.4048 260.428 61.4048 260.545 61.5748 260.655C61.65 260.684 61.7332 260.684 61.8084 260.655C62.0056 260.572 62.1823 260.445 62.3252 260.282C62.6099 259.971 62.8636 259.631 63.0828 259.267ZM63.5713 260.815C63.6639 260.321 63.6019 259.81 63.3943 259.355C63.0616 260.136 62.8279 260.983 62.9908 261.158C63.0403 261.217 63.1678 261.158 63.2456 261.158C63.3178 261.129 63.3836 261.086 63.4395 261.031C63.4954 260.976 63.5402 260.91 63.5713 260.837V260.815Z" fill="#407BFF"/>
<path d="M121.875 254.799C120.587 259.91 116.919 261.516 113.188 261.698C108.692 261.932 69.122 259.384 69.122 259.384L71.2036 253.113L106.051 251.696L86.822 240.709C86.822 240.709 68.676 238.007 70.1416 224.639C70.7778 219.55 72.1202 214.58 74.1276 209.884C74.2763 209.512 74.4391 209.154 74.5949 208.789L93.3357 207.68L93.4702 208.607L94.518 215.564L96.642 221.405C96.642 221.405 124.608 243.892 121.875 254.799Z" fill="#263238"/>
<path opacity="0.2" d="M97.4916 222.135L73.3276 234.247C78.2057 239.438 86.822 240.709 86.822 240.709L106.051 251.711L71.2036 253.127L69.122 259.399C69.122 259.399 108.692 261.947 113.188 261.713C116.884 261.531 120.587 259.946 121.875 254.814C124.325 245.038 102.157 226.005 97.4916 222.135Z" fill="black"/>
<path d="M115.595 242.877L114.646 244.877L110.71 253.113L107.517 259.8L104.472 259.647L106.207 252.324L108.182 243.957L108.621 242.096L115.595 242.877Z" fill="#EEC1BB"/>
<path opacity="0.2" d="M114.646 244.877L110.71 253.113L106.207 252.324L108.182 243.957L114.646 244.877Z" fill="black"/>
<path d="M103.949 187.785C103.949 187.785 102.179 202.481 94.2985 214.104C94.2985 214.104 77.5048 211.914 73.7665 210.797C76.0958 203.701 77.4835 198.97 78.4464 185.66C78.68 182.448 81.4979 180.601 84.5706 181.17C87.5938 181.386 90.5789 181.992 93.456 182.974C97.2296 184.229 103.949 187.785 103.949 187.785Z" fill="#263238"/>
<path d="M70.5097 223.406C70.5097 223.406 68.3857 237.117 78.1278 238.489C94.1215 240.738 109.018 224.479 110.866 224.515C112.714 224.552 105.549 250.93 105.549 250.93L112.707 252.032C112.707 252.032 125.635 219.536 122.498 212.535C119.362 205.533 81.8377 223.661 70.5097 223.406Z" fill="#263238"/>
<path d="M104.076 257.333C104.076 256.894 109.322 257.23 109.322 257.23C109.322 257.23 112.544 260.603 115.694 261.363C118.845 262.122 117.11 264.057 113.57 264.057H104.897C102.412 264.071 103.963 261.888 104.076 257.333Z" fill="#407BFF"/>
<path d="M109.421 257.5H109.379C109.379 257.5 109.379 257.5 109.379 257.457C109.376 257.442 109.376 257.427 109.379 257.413C109.375 257.394 109.375 257.374 109.379 257.354C109.379 257.289 109.839 256.04 110.547 255.734C110.658 255.679 110.779 255.65 110.901 255.65C111.024 255.65 111.145 255.679 111.255 255.734C111.489 255.85 111.609 256.004 111.595 256.186C111.581 256.369 111.206 256.756 110.781 256.989C111.177 256.921 111.583 256.967 111.956 257.121C112.025 257.159 112.085 257.211 112.134 257.274C112.182 257.336 112.218 257.409 112.239 257.486C112.277 257.584 112.284 257.692 112.262 257.794C112.239 257.897 112.187 257.991 112.112 258.063C111.978 258.16 111.815 258.207 111.652 258.194C110.874 258.104 110.118 257.869 109.421 257.5ZM109.903 257.413C110.675 257.749 111.63 258.048 111.878 257.836C111.878 257.836 111.963 257.763 111.878 257.552C111.868 257.511 111.849 257.473 111.823 257.44C111.798 257.408 111.766 257.381 111.729 257.362C111.537 257.271 111.325 257.231 111.114 257.245C110.705 257.257 110.3 257.314 109.903 257.413ZM110.611 255.953C110.198 256.23 109.883 256.637 109.712 257.114C110.49 256.814 111.234 256.383 111.248 256.15C111.248 256.077 111.135 256.004 111.064 255.967C110.988 255.931 110.906 255.912 110.823 255.909C110.754 255.916 110.687 255.935 110.625 255.967L110.611 255.953Z" fill="#407BFF"/>
<path d="M107.135 198.634C106.122 197.247 109.676 192.341 111.914 192.633C114.151 192.925 118.824 194.093 121.181 192.487C123.539 190.88 128.106 192.428 129.805 193.538C131.504 194.648 132.283 192.487 134.393 196.349C136.502 200.211 137.777 199.203 138.442 206.439C139.108 213.674 146.429 225.129 152.043 226.07C157.657 227.012 159.477 231.459 162.422 229.845C165.368 228.232 172.143 229.29 172.143 229.29C172.143 229.29 168.504 237 160.716 237.277C160.716 237.277 156.234 249.988 146.683 248.55C137.133 247.112 128.856 239.811 124.976 222.676C123.778 217.613 121.573 212.863 118.502 208.724C115.431 204.586 111.56 201.15 107.135 198.634Z" fill="#407BFF"/>
<path opacity="0.9" d="M172.143 229.29C172.143 229.29 168.504 236.992 160.716 237.277C160.716 237.277 156.234 249.995 146.683 248.55C137.133 247.104 128.856 239.818 124.976 222.676C121.436 207.001 109.4 199.853 107.418 198.758L107.135 198.612C107.049 198.467 106.991 198.306 106.966 198.138C106.94 197.97 106.947 197.799 106.986 197.634C107.304 195.699 110.059 192.37 111.942 192.618C113.514 192.822 116.268 193.458 118.583 193.268C119.508 193.228 120.41 192.955 121.21 192.472C121.64 192.187 122.122 191.994 122.626 191.902C125.075 191.406 128.41 192.633 129.805 193.523C130.077 193.708 130.387 193.825 130.711 193.866C131.617 193.983 132.318 193.523 133.394 194.816C133.774 195.283 134.106 195.789 134.385 196.327C136.509 200.182 137.77 199.189 138.442 206.424C138.782 210.074 140.779 214.732 143.398 218.624C145.664 221.989 148.354 224.756 150.903 225.735C151.27 225.877 151.65 225.984 152.036 226.056C156.595 226.822 158.649 229.889 160.836 230.152C161.383 230.226 161.937 230.113 162.415 229.83C162.801 229.628 163.207 229.469 163.626 229.356C166.925 228.472 172.143 229.29 172.143 229.29Z" fill="white"/>
<path opacity="0.1" d="M172.143 229.29C172.143 229.29 168.504 236.992 160.716 237.277C160.716 237.277 156.234 249.995 146.683 248.55C137.133 247.104 128.856 239.818 124.976 222.675C121.436 207.001 109.4 199.853 107.418 198.758C107.191 198.181 107.05 197.794 106.986 197.634C107.255 197.794 109.28 195.107 112.65 195.779C116.275 196.509 121.67 201.525 123.85 211.41C126.031 221.296 130.137 241.22 139.54 245.892C148.942 250.565 157.126 244.731 158.429 241.008C159.732 237.284 165.29 228.648 172.143 229.29Z" fill="black"/>
<path opacity="0.1" d="M163.661 229.363C160.624 230.743 156.794 237.314 152.085 237.263C147.377 237.211 142.584 231.115 143.809 231.736C145.034 232.356 149.473 235.883 153.636 233.313C157.799 230.743 163.661 229.363 163.661 229.363Z" fill="black"/>
<path opacity="0.1" d="M125.748 201.912C123.567 196.568 121.04 194.29 118.555 193.282C119.48 193.242 120.382 192.969 121.181 192.486C121.612 192.202 122.093 192.008 122.597 191.917C127.178 195.319 128.36 208.278 125.748 201.912Z" fill="black"/>
<path opacity="0.1" d="M133.394 194.83C133.139 198.115 131.617 202.182 131.603 198.408C131.649 196.848 131.344 195.298 130.711 193.881C131.617 193.998 132.318 193.538 133.394 194.83Z" fill="black"/>
<path opacity="0.1" d="M150.91 225.749C140.85 227.129 131.582 217.185 129.132 210.958C128.233 208.665 136.212 216.55 140.503 218.39C141.841 218.974 142.761 218.945 143.405 218.638C145.671 222.004 148.39 224.771 150.91 225.749Z" fill="black"/>
<path d="M105.301 199.349L108.997 196.816L109.705 202.124C109.705 202.124 106.823 203.029 104.607 201.145L105.301 199.349Z" fill="#FFC3BD"/>
<path d="M113.344 197.21L113.145 201.248L109.683 202.124L108.997 196.816L113.344 197.21Z" fill="#FFC3BD"/>
<path opacity="0.3" d="M103.941 187.785C103.415 191.461 102.591 195.085 101.478 198.619C99.8429 204.12 97.4234 209.339 94.2985 214.104C94.2985 214.104 77.5048 211.914 73.7665 210.797C74.2055 209.461 74.609 208.213 74.9843 206.971C76.2704 202.759 77.1641 198.429 77.6534 194.042C77.9154 191.968 78.1349 189.661 78.3614 186.916C78.3614 186.507 78.4181 186.091 78.4535 185.66C78.6871 182.448 81.505 180.601 84.5848 181.178C85.0166 181.258 85.9441 181.28 87.4168 181.491C87.5498 181.501 87.6821 181.518 87.8132 181.543C89.7355 181.875 91.6293 182.364 93.4772 183.003C94.4047 183.309 95.5092 183.733 96.6491 184.266C100.14 185.762 103.941 187.785 103.941 187.785Z" fill="white"/>
<path d="M96.5783 182.192C95.9448 182.927 95.5166 183.825 95.3393 184.791C95.2939 185.011 95.3018 185.238 95.3623 185.453C95.4228 185.669 95.5341 185.865 95.6862 186.025C95.3534 188.216 92.5356 188.011 92.5356 188.011C89.1018 184.558 89.1868 181.995 89.1868 181.995C90.0478 181.864 90.8642 181.516 91.5642 180.982C92.2643 180.449 92.8264 179.746 93.2011 178.936C93.7048 177.989 94.0698 176.971 94.2844 175.914L98.2067 180.345C97.6204 180.919 97.0761 181.536 96.5783 182.192Z" fill="#EEC1BB"/>
<path opacity="0.2" d="M98.2067 180.331C97.6204 180.904 97.0761 181.521 96.5783 182.178C95.9448 182.913 95.5166 183.811 95.3393 184.777C94.6296 183.996 94.0766 183.077 93.7121 182.075C93.3476 181.073 93.1788 180.006 93.2153 178.936C93.7189 177.989 94.084 176.971 94.2985 175.914L98.2067 180.331Z" fill="black"/>
<path d="M97.789 161.845C97.789 161.845 98.1146 157.997 94.426 157.464C90.7373 156.931 87.176 163.393 93.1374 164.4C99.0988 165.408 97.789 161.845 97.789 161.845Z" fill="#263238"/>
<path d="M99.6722 162.663C99.6722 162.663 98.4191 160.881 95.3888 161.933C92.3586 162.984 92.1533 166.182 92.7763 166.204C93.3994 166.226 99.12 164.13 99.6722 162.663Z" fill="#407BFF"/>
<path d="M95.9269 177.834C95.9269 177.834 89.3001 177.724 90.7798 168.686C92.2595 159.647 106.037 159.728 105.648 167.956C105.258 176.184 95.9269 177.834 95.9269 177.834Z" fill="#263238"/>
<path d="M93.7463 168.226C92.7126 173.271 92.1674 175.381 93.8525 178.739C96.3942 183.784 102.469 184.295 104.904 179.739C107.092 175.644 108.444 168.058 104.359 164.524C103.518 163.72 102.482 163.164 101.359 162.916C100.237 162.669 99.0712 162.738 97.9842 163.117C96.8972 163.496 95.9296 164.171 95.1837 165.07C94.4377 165.97 93.9411 167.06 93.7463 168.226Z" fill="#EEC1BB"/>
<path d="M99.0138 166.517C95.1623 168.773 98.7589 174.818 93.7038 172.358C88.6487 169.898 93.7605 163.334 97.4987 162.94C101.237 162.546 99.0138 166.517 99.0138 166.517Z" fill="#263238"/>
<path d="M97.4916 163.035C96.8544 166.503 97.0172 167.547 100.118 167.861C99.9642 167.044 100.092 166.197 100.479 165.466C100.437 166.365 100.737 167.245 101.315 167.919C102.185 167.909 103.054 167.995 103.906 168.175C103.934 167.661 104.077 167.161 104.324 166.715C104.329 167.338 104.508 167.946 104.841 168.467C105.683 168.841 106.46 169.354 107.142 169.985C108.487 166.598 104.416 160.618 97.4916 163.035Z" fill="#263238"/>
<path d="M100.621 172.088C100.515 172.511 100.621 172.92 100.89 173.008C101.159 173.095 101.435 172.825 101.541 172.402C101.648 171.978 101.541 171.57 101.272 171.482C101.003 171.394 100.727 171.672 100.621 172.088Z" fill="#263238"/>
<path d="M105.372 173.796C105.265 174.213 105.372 174.621 105.641 174.709C105.91 174.797 106.186 174.526 106.292 174.11C106.398 173.694 106.292 173.278 106.023 173.19C105.754 173.103 105.492 173.373 105.372 173.796Z" fill="#263238"/>
<path d="M105.903 173.176H106.908C106.908 173.176 106.235 173.826 105.903 173.176Z" fill="#263238"/>
<path d="M103.871 174.03C103.974 175.106 104.212 176.164 104.579 177.177C104.339 177.261 104.083 177.287 103.832 177.254C103.58 177.221 103.339 177.13 103.127 176.987L103.871 174.03Z" fill="#D4827D"/>
<path d="M100.536 177.775C100.739 177.891 100.953 177.986 101.173 178.06C101.188 178.066 101.204 178.068 101.22 178.066C101.235 178.065 101.251 178.06 101.264 178.051C101.278 178.043 101.289 178.031 101.298 178.018C101.307 178.004 101.313 177.989 101.315 177.973C101.324 177.941 101.321 177.906 101.307 177.876C101.292 177.847 101.267 177.824 101.237 177.812C100.739 177.647 100.284 177.368 99.9058 176.994C99.528 176.621 99.2375 176.164 99.0563 175.658C99.0479 175.626 99.0278 175.598 99.0002 175.58C98.9726 175.563 98.9394 175.557 98.9076 175.563C98.8773 175.575 98.8523 175.598 98.8379 175.628C98.8234 175.658 98.8205 175.692 98.8297 175.724C99.131 176.603 99.7394 177.334 100.536 177.775Z" fill="#263238"/>
<path d="M91.4807 172.548C91.5004 173.042 91.6202 173.527 91.8323 173.971C92.0445 174.415 92.3443 174.808 92.7126 175.125C93.6471 175.855 94.61 174.811 94.7658 173.417C94.9003 172.154 94.5746 170.255 93.4348 170.08C92.2949 169.905 91.3957 171.227 91.4807 172.548Z" fill="#EEC1BB"/>
<path d="M100.182 169.379C100.212 169.394 100.245 169.401 100.278 169.401C100.311 169.401 100.343 169.394 100.373 169.379C100.638 169.241 100.932 169.173 101.229 169.182C101.526 169.191 101.816 169.276 102.072 169.43C102.098 169.449 102.128 169.461 102.159 169.467C102.19 169.473 102.222 169.472 102.252 169.464C102.283 169.457 102.312 169.443 102.337 169.423C102.362 169.403 102.383 169.379 102.398 169.35C102.429 169.29 102.437 169.221 102.421 169.155C102.406 169.089 102.367 169.031 102.313 168.992C101.993 168.799 101.632 168.69 101.262 168.675C100.891 168.66 100.523 168.739 100.189 168.905C100.132 168.937 100.09 168.991 100.07 169.055C100.05 169.118 100.055 169.188 100.083 169.248C100.101 169.302 100.136 169.348 100.182 169.379Z" fill="#263238"/>
<path d="M107.333 171.964C107.361 171.977 107.391 171.983 107.421 171.983C107.452 171.983 107.482 171.977 107.51 171.964C107.54 171.953 107.567 171.935 107.59 171.913C107.613 171.89 107.632 171.863 107.644 171.833C107.657 171.803 107.663 171.771 107.663 171.738C107.663 171.705 107.657 171.673 107.644 171.643C107.529 171.253 107.328 170.896 107.056 170.599C106.785 170.303 106.451 170.075 106.08 169.934C106.049 169.926 106.018 169.924 105.987 169.928C105.956 169.933 105.926 169.944 105.899 169.961C105.873 169.978 105.85 170.001 105.832 170.028C105.814 170.055 105.802 170.085 105.796 170.117C105.783 170.182 105.793 170.251 105.826 170.309C105.859 170.367 105.911 170.41 105.973 170.431C106.265 170.548 106.528 170.731 106.741 170.968C106.955 171.204 107.113 171.487 107.205 171.796C107.214 171.832 107.229 171.865 107.251 171.894C107.273 171.923 107.301 171.947 107.333 171.964Z" fill="#263238"/>
<path d="M101.152 171.467H102.157C102.157 171.467 101.485 172.124 101.152 171.467Z" fill="#263238"/>
<path d="M105.619 213.579C105.011 213.929 84.2308 225.873 78.4889 224.53C72.747 223.187 72.5488 214.09 72.5488 214.09L74.3896 207.147C74.5956 207.113 74.7959 207.049 74.9843 206.957C78.319 205.343 84.4078 194.618 84.4078 194.618C84.4078 194.618 85.6184 184.667 87.3884 181.477C87.5214 181.486 87.6538 181.503 87.7849 181.528C87.4667 182.423 87.2297 183.347 87.0769 184.288C86.7937 185.967 86.2061 192.195 86.2061 192.195L99.2687 194.706C98.1925 186.675 96.7128 184.361 96.6278 184.222C99.6368 186.558 101.449 198.605 101.449 198.605C100.663 203.664 97.2721 211.593 96.2243 213.323C95.1764 215.053 95.6791 215.82 95.6791 215.82L105.619 213.579Z" fill="#407BFF"/>
<path opacity="0.2" d="M86.0432 188.749C86.0432 188.749 80.2801 193.385 77.6534 194.042C77.9154 191.968 78.1349 189.661 78.3614 186.916C79.8482 185.281 82.1351 184.251 85.3636 185.142C85.7365 186.31 85.9648 187.522 86.0432 188.749Z" fill="black"/>
<path d="M84.16 185.514C84.5918 187.201 85.0096 188.953 85.4698 190.625C85.93 192.297 86.3548 194.071 86.8362 195.735C87.3176 197.4 87.8132 199.108 88.3796 200.678C88.6628 201.459 88.946 202.233 89.2505 202.868C89.3213 203.029 89.3992 203.175 89.47 203.314L89.5691 203.489C89.4558 203.379 89.3779 203.387 89.47 203.438C89.9549 203.594 90.4648 203.651 90.9709 203.606C91.7179 203.564 92.4609 203.466 93.194 203.314C94.815 202.974 96.4155 202.538 97.9872 202.007C99.6085 201.488 101.223 200.89 102.83 200.24C104.437 199.59 106.065 198.94 107.644 198.276H107.68C108.032 198.147 108.419 198.154 108.767 198.295C109.115 198.436 109.402 198.703 109.575 199.046C109.747 199.388 109.794 199.784 109.706 200.159C109.618 200.534 109.401 200.864 109.096 201.087C107.574 202.124 106.037 203.029 104.465 203.949C102.894 204.869 101.272 205.665 99.6156 206.438C97.9188 207.242 96.1679 207.918 94.3764 208.461C93.4051 208.752 92.4132 208.964 91.4099 209.096C90.166 209.289 88.8966 209.207 87.6858 208.855C86.8074 208.581 86.0124 208.078 85.3777 207.395L85.1299 207.088L85.0166 206.942L84.9529 206.847L84.6839 206.453C84.5281 206.205 84.3794 205.957 84.2449 205.723C83.7565 204.837 83.3168 203.922 82.928 202.985C82.1846 201.196 81.5545 199.437 80.9952 197.663C80.4359 195.889 79.9049 194.129 79.4164 192.355C78.9278 190.581 78.4889 188.814 78.1066 186.974C77.9122 186.148 78.0443 185.275 78.4739 184.549C78.9034 183.822 79.5952 183.302 80.3969 183.101C81.1987 182.901 82.0449 183.037 82.7493 183.48C83.4536 183.923 83.9585 184.636 84.1529 185.463L84.16 185.514Z" fill="#EABDBD"/>
<path d="M83.7139 181.572C80.9173 180.418 76.2658 182.608 77.5685 189.836L85.3565 188.581C85.3565 188.581 85.9937 182.521 83.7139 181.572Z" fill="#263238"/>
<path opacity="0.3" d="M83.7139 181.572C80.9173 180.418 76.2658 182.608 77.5685 189.836L85.3565 188.581C85.3565 188.581 85.9937 182.521 83.7139 181.572Z" fill="white"/>
<path d="M77.2216 189.135L85.5406 187.741L85.583 188.668L77.3419 190.457L77.2216 189.135Z" fill="#263238"/>
<path d="M196.215 264.064H300.652V168.679H196.215V264.064Z" fill="#407BFF"/>
<path opacity="0.6" d="M196.215 264.064H300.652V168.679H196.215V264.064Z" fill="#FAFAFA"/>
<path opacity="0.3" d="M196.208 264.064H256.105V168.679H196.208V264.064Z" fill="white"/>
<path opacity="0.2" d="M256.112 177.753H196.215V179.009H256.112V177.753Z" fill="black"/>
<path opacity="0.2" d="M300.652 249.959H196.215V251.572H300.652V249.959Z" fill="black"/>
<path opacity="0.2" d="M241.032 173.169C241.032 173.388 240.968 173.603 240.85 173.785C240.732 173.968 240.564 174.11 240.367 174.194C240.171 174.278 239.954 174.3 239.745 174.257C239.537 174.214 239.345 174.108 239.194 173.953C239.044 173.798 238.941 173.6 238.9 173.385C238.858 173.17 238.88 172.947 238.961 172.744C239.043 172.541 239.18 172.368 239.357 172.246C239.534 172.124 239.743 172.059 239.955 172.059C240.241 172.059 240.514 172.176 240.716 172.384C240.918 172.592 241.032 172.874 241.032 173.169Z" fill="black"/>
<path opacity="0.2" d="M245.18 173.169C245.182 173.39 245.119 173.607 245.001 173.792C244.882 173.977 244.713 174.121 244.515 174.206C244.317 174.292 244.098 174.315 243.888 174.272C243.677 174.229 243.483 174.122 243.331 173.966C243.179 173.809 243.076 173.609 243.034 173.392C242.993 173.175 243.015 172.949 243.098 172.745C243.181 172.541 243.321 172.366 243.5 172.244C243.679 172.122 243.889 172.057 244.104 172.059C244.39 172.059 244.663 172.176 244.865 172.384C245.067 172.592 245.18 172.874 245.18 173.169Z" fill="black"/>
<path opacity="0.2" d="M206.906 174.278C207.5 174.278 207.982 173.781 207.982 173.169C207.982 172.556 207.5 172.059 206.906 172.059C206.312 172.059 205.83 172.556 205.83 173.169C205.83 173.781 206.312 174.278 206.906 174.278Z" fill="black"/>
<path opacity="0.2" d="M212.131 173.169C212.131 173.388 212.068 173.603 211.95 173.785C211.831 173.968 211.663 174.11 211.467 174.194C211.27 174.278 211.054 174.3 210.845 174.257C210.636 174.214 210.444 174.108 210.294 173.953C210.143 173.798 210.041 173.6 209.999 173.385C209.958 173.17 209.979 172.947 210.061 172.744C210.142 172.541 210.28 172.368 210.457 172.246C210.634 172.124 210.842 172.059 211.055 172.059C211.34 172.059 211.614 172.176 211.816 172.384C212.018 172.592 212.131 172.874 212.131 173.169Z" fill="black"/>
<path opacity="0.2" d="M234.348 170.474H216.669C216.247 170.474 215.905 170.827 215.905 171.263V175.074C215.905 175.509 216.247 175.863 216.669 175.863H234.348C234.77 175.863 235.113 175.509 235.113 175.074V171.263C235.113 170.827 234.77 170.474 234.348 170.474Z" fill="black"/>
<path opacity="0.3" d="M202.977 181.521H199.798C199.305 181.521 198.906 181.933 198.906 182.441V188.143C198.906 188.651 199.305 189.063 199.798 189.063H202.977C203.469 189.063 203.869 188.651 203.869 188.143V182.441C203.869 181.933 203.469 181.521 202.977 181.521Z" fill="white"/>
<path opacity="0.1" d="M202.962 184.711C202.962 185.938 202.254 186.901 201.391 186.901C200.527 186.901 199.826 185.909 199.826 184.711C199.826 183.514 200.534 182.484 201.391 182.484C202.247 182.484 202.962 183.47 202.962 184.711Z" fill="black"/>
<path opacity="0.1" d="M203.047 187.566H199.734V188.128H203.047V187.566Z" fill="black"/>
<path d="M225.505 241.658C236.313 241.658 245.074 229.348 245.074 214.163C245.074 198.978 236.313 186.668 225.505 186.668C214.697 186.668 205.936 198.978 205.936 214.163C205.936 229.348 214.697 241.658 225.505 241.658Z" fill="#407BFF"/>
<path opacity="0.3" d="M241.775 214.163C241.775 226.268 235.714 236.314 227.856 238C227.082 238.166 226.295 238.252 225.505 238.256C223.385 238.246 221.306 237.657 219.48 236.547C219.013 236.273 218.564 235.968 218.135 235.635C215.426 233.468 213.292 230.63 211.933 227.385C211.327 226.019 210.827 224.605 210.439 223.157C210.262 222.537 210.113 221.909 209.979 221.259C209.502 218.933 209.264 216.562 209.271 214.185C209.271 200.904 216.563 190.092 225.555 190.092C226.344 190.093 227.132 190.176 227.905 190.34C229.104 190.605 230.259 191.05 231.332 191.662C231.714 191.873 232.082 192.114 232.458 192.392C233.345 193.014 234.17 193.726 234.921 194.516C237.115 196.887 238.803 199.704 239.877 202.788C240.099 203.367 240.298 203.959 240.472 204.562C241.359 207.679 241.798 210.914 241.775 214.163Z" fill="white"/>
<path opacity="0.2" d="M241.775 214.163C241.775 226.268 235.714 236.314 227.856 238C219.997 236.306 213.943 226.26 213.943 214.163C213.943 202.065 219.997 192.019 227.856 190.326C235.714 192.012 241.775 202.065 241.775 214.163Z" fill="black"/>
<path opacity="0.1" d="M231.282 191.647C222.847 200.407 215.666 210.364 209.957 221.215C209.48 218.89 209.243 216.518 209.249 214.141C209.249 200.861 216.542 190.048 225.533 190.048C226.323 190.049 227.11 190.132 227.884 190.296C229.075 190.573 230.22 191.028 231.282 191.647Z" fill="white"/>
<path opacity="0.1" d="M234.872 194.48C225.591 204.118 217.842 215.206 211.911 227.333C211.306 225.967 210.806 224.554 210.418 223.106C216.233 211.782 223.643 201.409 232.408 192.326C233.297 192.958 234.122 193.679 234.872 194.48Z" fill="white"/>
<path opacity="0.1" d="M240.416 204.526C231.927 214.063 224.871 224.856 219.48 236.547C219.013 236.273 218.564 235.968 218.135 235.635C223.691 223.598 231.012 212.517 239.842 202.781C240.05 203.34 240.241 203.922 240.416 204.526Z" fill="white"/>
<path opacity="0.2" d="M245.074 214.163C245.074 229.349 236.316 241.658 225.505 241.658H225.144C235.806 241.417 244.387 229.203 244.387 214.17C244.387 199.138 235.835 186.902 225.144 186.675H225.477C236.316 186.668 245.074 198.977 245.074 214.163Z" fill="black"/>
<path d="M220.556 250.682C224.847 247.031 224.309 242.738 218.999 239.672C213.689 236.606 213.037 236.547 208.839 237.482C204.64 238.416 205.773 236.299 199.819 237.285C193.865 238.27 189.567 240.241 190.579 243.03C191.592 245.819 213.816 256.369 220.556 250.682Z" fill="#263238"/>
<path opacity="0.3" d="M220.556 250.682C224.847 247.031 224.309 242.738 218.999 239.672C213.689 236.606 213.037 236.547 208.839 237.482C204.64 238.416 205.773 236.299 199.819 237.285C193.865 238.27 189.567 240.241 190.579 243.03C191.592 245.819 213.816 256.369 220.556 250.682Z" fill="white"/>
<path d="M209.172 246.958C211.111 243.074 206.403 242.87 202.481 239.701C198.559 236.533 195.826 231.955 192.045 234.532C188.264 237.109 188.647 238.759 182.544 239.701C176.441 240.643 174.961 240.862 172.235 242.169C169.509 243.476 167.888 242.899 167.853 245.673C167.817 248.448 163.994 250.66 174.933 250.93C185.871 251.2 207.394 250.521 209.172 246.958Z" fill="#407BFF"/>
<path opacity="0.5" d="M209.172 246.958C211.111 243.074 206.403 242.87 202.481 239.701C198.559 236.533 195.826 231.955 192.045 234.532C188.264 237.109 188.647 238.759 182.544 239.701C176.441 240.643 174.961 240.862 172.235 242.169C169.509 243.476 167.888 242.899 167.853 245.673C167.817 248.448 163.994 250.66 174.933 250.93C185.871 251.2 207.394 250.521 209.172 246.958Z" fill="white"/>
<path d="M202.828 257.815C203.182 255.478 198.58 252.492 194.707 249.316C190.834 246.141 191.011 246.133 185.05 246.498C179.089 246.863 178.586 246.929 174.883 246.17C171.18 245.41 170.409 245.513 167.315 246.498C164.221 247.484 162.359 247.425 162.012 249.813C161.665 252.2 158.854 261.998 165.722 262.626C172.589 263.254 202.41 260.64 202.828 257.815Z" fill="#407BFF"/>
<path opacity="0.3" d="M202.828 257.815C203.182 255.478 198.58 252.492 194.707 249.316C190.834 246.141 191.011 246.133 185.05 246.498C179.089 246.863 178.586 246.929 174.883 246.17C171.18 245.41 170.409 245.513 167.315 246.498C164.221 247.484 162.359 247.425 162.012 249.813C161.665 252.2 158.854 261.998 165.722 262.626C172.589 263.254 202.41 260.64 202.828 257.815Z" fill="white"/>
<path d="M221.059 260.07C220.769 258.355 217.03 256.822 213.186 256.464C209.918 256.24 206.755 255.181 203.982 253.383C200.753 251.477 199.245 251.39 196.668 253.383C194.091 255.376 192.98 255.887 189.199 255.573C187.139 255.321 185.061 255.26 182.99 255.391C179.605 255.5 179.28 255.062 176.943 256.369C174.607 257.676 173.63 255.967 171.648 257.793C169.665 259.618 168.263 259.64 167.874 260.53C167.484 261.421 166.316 262.049 168.341 262.604C170.366 263.159 219.239 263.568 219.94 262.604C220.641 261.64 221.158 260.64 221.059 260.07Z" fill="#263238"/>
<path d="M218.199 259.859C222.029 258.72 221.944 258.574 222.857 254.193C223.77 249.813 226.645 249.988 222.284 248.462C217.922 246.936 215.841 246.352 212.372 246.17C208.902 245.987 206.198 247.148 203.168 246.571C200.137 245.994 201.27 246.279 196.796 245.272C192.321 244.264 191.04 243.432 187.762 244.98C184.484 246.527 180.83 244.607 182.437 248.477C184.045 252.346 209.044 262.575 218.199 259.859Z" fill="#407BFF"/>
<path opacity="0.4" d="M182.459 248.477C183.259 250.397 189.801 253.879 197.327 256.573C201.374 258.064 205.541 259.18 209.78 259.91C213.108 260.435 216.082 260.494 218.199 259.866L219.14 259.581C222.022 258.669 222.036 258.187 222.857 254.208C223.052 253.273 223.384 252.375 223.841 251.543C224.79 249.805 225.47 249.594 222.284 248.477C217.922 246.951 215.841 246.367 212.372 246.184C210.525 246.169 208.679 246.315 206.856 246.622C205.634 246.797 204.393 246.783 203.175 246.578C200.159 246.002 201.277 246.294 196.803 245.279C193.411 244.549 191.847 243.855 189.879 244.257C189.144 244.407 188.43 244.653 187.755 244.987C184.505 246.527 180.844 244.578 182.459 248.477Z" fill="black"/>
<path opacity="0.3" d="M194.99 246.768C197.652 248.039 197.582 248.455 199.819 248.484C202.056 248.513 202.977 248.236 204.931 249.82C206.885 251.404 208.648 251.485 208.088 248.813C207.902 247.974 207.478 247.212 206.871 246.622C205.648 246.797 204.407 246.783 203.189 246.578C200.173 246.002 201.291 246.294 196.817 245.279C193.426 244.549 191.861 243.855 189.893 244.257C188.002 245.783 192.626 245.629 194.99 246.768Z" fill="white"/>
<path opacity="0.3" d="M212.258 247.725C212.499 249.82 215.352 250.755 216.096 252.923C216.839 255.091 214.205 254.806 216.91 257.106C217.734 257.845 218.481 258.669 219.14 259.567C222.022 258.654 222.036 258.172 222.857 254.193C223.052 253.259 223.384 252.36 223.841 251.528C221.88 250.003 219.898 250.901 217.151 249.813C213.335 248.301 212.018 245.629 212.258 247.725Z" fill="white"/>
<path opacity="0.3" d="M195.812 254.018C196.415 254.802 196.922 255.66 197.32 256.573C201.369 258.064 205.539 259.181 209.78 259.91C210.283 257.486 208.803 256.989 206.141 255.135C202.906 252.864 201.681 251.857 199.352 252.003C197.022 252.149 197.093 252.733 194.707 250.769C192.321 248.805 190.622 247.447 189.447 247.447C188.271 247.447 193.057 250.492 195.812 254.018Z" fill="white"/>
<path d="M166.507 240.073C166.445 239.962 166.413 239.836 166.413 239.708C166.413 239.58 166.445 239.454 166.507 239.343L168.334 236.021C168.585 235.572 168.948 235.201 169.385 234.944C169.821 234.687 170.317 234.555 170.819 234.561H177.899C178.326 234.559 178.747 234.657 179.132 234.846C179.517 235.036 179.856 235.313 180.122 235.656L182.841 239.132C182.924 239.238 182.977 239.366 182.993 239.501C183.01 239.637 182.989 239.774 182.933 239.898C182.877 240.024 182.787 240.13 182.674 240.205C182.561 240.28 182.43 240.321 182.296 240.322L167.116 240.46C166.991 240.457 166.868 240.42 166.761 240.352C166.654 240.284 166.566 240.188 166.507 240.073ZM179.025 236.547C178.892 236.373 178.722 236.233 178.528 236.136C178.334 236.04 178.121 235.991 177.906 235.992H170.826C170.574 235.991 170.325 236.058 170.106 236.186C169.886 236.314 169.702 236.499 169.573 236.722L168.348 238.913L180.837 238.796L179.025 236.547Z" fill="#407BFF"/>
<path d="M219.841 240.431L204.662 240.292C204.527 240.291 204.396 240.251 204.283 240.176C204.171 240.101 204.081 239.995 204.024 239.869C203.969 239.745 203.948 239.608 203.964 239.472C203.98 239.337 204.033 239.209 204.116 239.102L206.842 235.627C207.108 235.285 207.445 235.008 207.829 234.819C208.213 234.629 208.633 234.531 209.058 234.532H216.138C216.641 234.526 217.136 234.658 217.573 234.915C218.009 235.171 218.372 235.543 218.623 235.992L220.457 239.314C220.519 239.425 220.552 239.551 220.552 239.679C220.552 239.807 220.519 239.933 220.457 240.044C220.394 240.153 220.305 240.243 220.199 240.306C220.092 240.369 219.971 240.402 219.848 240.402L219.841 240.431ZM209.058 235.992C208.843 235.991 208.631 236.04 208.437 236.137C208.243 236.233 208.073 236.373 207.94 236.547L206.141 238.847L218.623 238.964L217.398 236.773C217.269 236.55 217.086 236.365 216.866 236.237C216.646 236.109 216.398 236.042 216.145 236.043L209.058 235.992Z" fill="#407BFF"/>
<g opacity="0.2">
<path d="M166.507 240.073C166.445 239.962 166.413 239.836 166.413 239.708C166.413 239.58 166.445 239.454 166.507 239.343L168.334 236.021C168.585 235.572 168.948 235.201 169.385 234.944C169.821 234.687 170.317 234.555 170.819 234.561H177.899C178.326 234.559 178.747 234.657 179.132 234.846C179.517 235.036 179.856 235.313 180.122 235.656L182.841 239.132C182.924 239.238 182.977 239.366 182.993 239.501C183.01 239.637 182.989 239.774 182.933 239.898C182.877 240.024 182.787 240.13 182.674 240.205C182.561 240.28 182.43 240.321 182.296 240.322L167.116 240.46C166.991 240.457 166.868 240.42 166.761 240.352C166.654 240.284 166.566 240.188 166.507 240.073ZM179.025 236.547C178.892 236.373 178.722 236.233 178.528 236.136C178.334 236.04 178.121 235.991 177.906 235.992H170.826C170.574 235.991 170.325 236.058 170.106 236.186C169.886 236.314 169.702 236.499 169.573 236.722L168.348 238.913L180.837 238.796L179.025 236.547Z" fill="black"/>
</g>
<g opacity="0.2">
<path d="M219.841 240.431L204.662 240.292C204.527 240.291 204.396 240.251 204.283 240.176C204.171 240.101 204.081 239.995 204.024 239.869C203.969 239.745 203.948 239.608 203.964 239.472C203.98 239.337 204.033 239.209 204.116 239.102L206.842 235.627C207.108 235.285 207.445 235.008 207.829 234.819C208.213 234.629 208.633 234.531 209.058 234.532H216.138C216.641 234.526 217.136 234.658 217.573 234.915C218.009 235.171 218.372 235.543 218.623 235.992L220.457 239.314C220.519 239.425 220.552 239.551 220.552 239.679C220.552 239.807 220.519 239.933 220.457 240.044C220.394 240.153 220.305 240.243 220.199 240.306C220.092 240.369 219.971 240.402 219.848 240.402L219.841 240.431ZM209.058 235.992C208.843 235.991 208.631 236.04 208.437 236.137C208.243 236.233 208.073 236.373 207.94 236.547L206.141 238.847L218.623 238.964L217.398 236.773C217.269 236.55 217.086 236.365 216.866 236.237C216.646 236.109 216.398 236.042 216.145 236.043L209.058 235.992Z" fill="black"/>
</g>
<path d="M156.624 240.241L162.288 262.991C162.369 263.296 162.544 263.565 162.787 263.759C163.029 263.952 163.326 264.059 163.633 264.064H221.455C221.762 264.059 222.059 263.952 222.302 263.759C222.544 263.565 222.719 263.296 222.801 262.991L228.465 240.241C228.513 240.071 228.522 239.891 228.491 239.716C228.461 239.541 228.39 239.376 228.286 239.234C228.182 239.092 228.048 238.977 227.893 238.898C227.738 238.82 227.568 238.78 227.395 238.781H157.7C157.527 238.78 157.357 238.82 157.202 238.899C157.047 238.977 156.912 239.092 156.808 239.234C156.703 239.375 156.632 239.54 156.6 239.715C156.569 239.89 156.576 240.07 156.624 240.241ZM217.554 260.501L222.51 242.161C222.535 242.069 222.577 241.982 222.634 241.906C222.691 241.831 222.762 241.767 222.843 241.72C222.924 241.672 223.013 241.642 223.105 241.63C223.198 241.618 223.291 241.625 223.381 241.65C223.471 241.676 223.555 241.719 223.628 241.778C223.702 241.837 223.763 241.91 223.809 241.993C223.855 242.077 223.885 242.169 223.897 242.264C223.908 242.359 223.901 242.456 223.877 242.548L218.921 260.888C218.878 261.046 218.785 261.184 218.656 261.281C218.528 261.378 218.372 261.427 218.213 261.421H218.022C217.932 261.393 217.849 261.346 217.777 261.285C217.705 261.223 217.645 261.147 217.602 261.062C217.558 260.976 217.532 260.883 217.523 260.786C217.515 260.69 217.526 260.593 217.554 260.501ZM213.207 260.501L217.604 242.161C217.623 242.065 217.661 241.974 217.715 241.893C217.77 241.813 217.839 241.744 217.92 241.692C218 241.639 218.09 241.604 218.184 241.588C218.279 241.573 218.375 241.577 218.467 241.601C218.56 241.624 218.647 241.667 218.723 241.726C218.799 241.785 218.863 241.859 218.91 241.944C218.958 242.029 218.988 242.124 219 242.221C219.011 242.319 219.004 242.418 218.977 242.512L214.581 260.852C214.542 261.014 214.45 261.157 214.322 261.258C214.193 261.359 214.034 261.411 213.873 261.406H213.703C213.523 261.355 213.37 261.233 213.277 261.066C213.185 260.899 213.159 260.702 213.207 260.516V260.501ZM208.86 260.501L212.683 242.161C212.723 241.968 212.835 241.798 212.996 241.69C213.156 241.582 213.352 241.544 213.54 241.585C213.728 241.625 213.892 241.741 213.997 241.907C214.102 242.073 214.139 242.274 214.099 242.468L210.276 260.844C210.241 261.01 210.152 261.159 210.023 261.264C209.893 261.369 209.733 261.425 209.568 261.421C209.516 261.428 209.464 261.428 209.412 261.421C209.319 261.402 209.23 261.364 209.152 261.309C209.073 261.254 209.006 261.183 208.954 261.1C208.903 261.018 208.868 260.926 208.852 260.829C208.835 260.732 208.838 260.633 208.86 260.538V260.501ZM204.513 260.501L207.77 242.161C207.804 241.972 207.91 241.804 208.064 241.695C208.217 241.585 208.407 241.543 208.591 241.577C208.683 241.594 208.771 241.63 208.85 241.682C208.929 241.734 208.997 241.801 209.051 241.881C209.104 241.96 209.142 242.05 209.161 242.145C209.181 242.239 209.182 242.337 209.164 242.432L205.901 260.771C205.869 260.94 205.781 261.092 205.651 261.2C205.522 261.308 205.359 261.366 205.193 261.363H205.065C204.893 261.324 204.74 261.22 204.638 261.072C204.536 260.923 204.491 260.74 204.513 260.56V260.501ZM200.159 260.501L202.856 242.161C202.883 241.968 202.984 241.793 203.136 241.676C203.288 241.559 203.479 241.509 203.667 241.537C203.855 241.565 204.024 241.669 204.137 241.826C204.251 241.983 204.299 242.18 204.272 242.373L201.582 260.713C201.556 260.887 201.47 261.046 201.34 261.16C201.21 261.274 201.045 261.335 200.874 261.333H200.768C200.595 261.308 200.437 261.219 200.325 261.081C200.213 260.944 200.153 260.768 200.159 260.589V260.501ZM195.812 260.501L197.936 242.161C197.946 242.066 197.975 241.973 198.021 241.888C198.066 241.804 198.127 241.73 198.201 241.67C198.274 241.61 198.358 241.565 198.448 241.539C198.538 241.512 198.632 241.504 198.725 241.515C198.818 241.526 198.908 241.556 198.99 241.603C199.072 241.65 199.144 241.713 199.202 241.789C199.26 241.864 199.303 241.951 199.329 242.044C199.355 242.136 199.362 242.234 199.352 242.329L197.228 260.669C197.207 260.847 197.123 261.011 196.992 261.13C196.862 261.248 196.694 261.313 196.52 261.312H196.435C196.271 261.292 196.12 261.214 196.006 261.091C195.892 260.969 195.824 260.809 195.812 260.64V260.501ZM185.652 260.552L186.36 242.213C186.367 242.019 186.449 241.836 186.587 241.705C186.725 241.573 186.908 241.504 187.096 241.512C187.284 241.519 187.461 241.604 187.588 241.746C187.716 241.889 187.783 242.077 187.776 242.271L187.068 260.611C187.068 260.804 186.993 260.99 186.86 261.127C186.728 261.264 186.548 261.341 186.36 261.341C186.177 261.341 186.001 261.268 185.869 261.137C185.737 261.007 185.659 260.828 185.652 260.64V260.552ZM181.446 242.388C181.446 242.194 181.521 242.008 181.654 241.872C181.786 241.735 181.966 241.658 182.154 241.658C182.342 241.658 182.522 241.735 182.655 241.872C182.788 242.008 182.862 242.194 182.862 242.388L183.004 260.727C183.004 260.921 182.929 261.107 182.796 261.244C182.664 261.381 182.484 261.458 182.296 261.458C182.108 261.458 181.928 261.381 181.795 261.244C181.662 261.107 181.588 260.921 181.588 260.727L181.446 242.388ZM176.54 242.424C176.529 242.231 176.594 242.041 176.72 241.896C176.845 241.752 177.021 241.665 177.209 241.654C177.397 241.643 177.581 241.71 177.721 241.839C177.861 241.969 177.945 242.15 177.956 242.344L178.947 260.684C178.952 260.78 178.938 260.876 178.907 260.966C178.876 261.056 178.827 261.14 178.765 261.211C178.702 261.282 178.627 261.34 178.543 261.381C178.459 261.422 178.367 261.446 178.274 261.45H178.239C178.058 261.451 177.884 261.38 177.753 261.252C177.621 261.125 177.542 260.95 177.531 260.764L176.54 242.424ZM171.626 242.461C171.617 242.365 171.625 242.268 171.652 242.175C171.679 242.083 171.723 241.997 171.782 241.922C171.842 241.848 171.915 241.786 171.997 241.74C172.08 241.695 172.17 241.667 172.263 241.658C172.449 241.639 172.634 241.697 172.779 241.819C172.923 241.941 173.016 242.116 173.035 242.307L174.876 260.64C174.886 260.736 174.877 260.833 174.85 260.925C174.823 261.018 174.779 261.104 174.72 261.178C174.661 261.253 174.588 261.315 174.505 261.36C174.422 261.406 174.332 261.434 174.239 261.443H174.168C173.993 261.444 173.824 261.378 173.693 261.258C173.562 261.138 173.479 260.973 173.46 260.793L171.626 242.461ZM169.417 260.83L166.72 242.49C166.693 242.299 166.741 242.106 166.853 241.951C166.964 241.797 167.13 241.694 167.315 241.665C167.407 241.65 167.501 241.655 167.591 241.678C167.681 241.701 167.767 241.742 167.842 241.799C167.916 241.856 167.98 241.928 168.028 242.01C168.076 242.092 168.108 242.183 168.122 242.278L170.812 260.618C170.838 260.809 170.791 261.002 170.679 261.157C170.568 261.311 170.402 261.414 170.217 261.443H170.111C169.94 261.441 169.775 261.374 169.647 261.256C169.52 261.138 169.438 260.976 169.417 260.8V260.83ZM161.813 242.527C161.795 242.431 161.796 242.332 161.814 242.236C161.833 242.141 161.87 242.05 161.923 241.969C161.976 241.888 162.044 241.818 162.123 241.764C162.202 241.71 162.29 241.673 162.383 241.654C162.476 241.635 162.572 241.636 162.665 241.655C162.758 241.675 162.846 241.713 162.924 241.767C163.003 241.822 163.07 241.892 163.123 241.973C163.175 242.055 163.211 242.146 163.229 242.242L166.769 260.581C166.788 260.676 166.788 260.773 166.77 260.868C166.752 260.962 166.716 261.052 166.664 261.132C166.612 261.212 166.545 261.281 166.467 261.334C166.389 261.388 166.302 261.425 166.21 261.443H166.076C165.91 261.446 165.748 261.39 165.619 261.283C165.49 261.176 165.401 261.026 165.368 260.859L161.813 242.527Z" fill="#407BFF"/>
<path opacity="0.2" d="M156.624 240.241L162.288 262.991C162.369 263.296 162.544 263.565 162.787 263.759C163.029 263.952 163.326 264.059 163.633 264.064H189.404C189.744 264.058 190.07 263.927 190.324 263.693C190.577 263.46 190.741 263.141 190.785 262.794L193.284 240.081C193.301 239.921 193.285 239.759 193.237 239.606C193.189 239.452 193.111 239.311 193.007 239.191C192.902 239.072 192.775 238.976 192.632 238.91C192.49 238.844 192.336 238.81 192.18 238.81H157.7C157.531 238.81 157.363 238.85 157.211 238.927C157.059 239.004 156.926 239.116 156.822 239.254C156.718 239.392 156.646 239.553 156.612 239.724C156.578 239.895 156.582 240.072 156.624 240.241ZM185.652 260.684L186.36 242.344C186.367 242.15 186.449 241.968 186.587 241.836C186.725 241.705 186.908 241.635 187.096 241.643C187.284 241.651 187.461 241.735 187.588 241.878C187.716 242.02 187.783 242.209 187.776 242.402L187.068 260.742C187.068 260.936 186.993 261.121 186.86 261.258C186.728 261.395 186.548 261.472 186.36 261.472C186.258 261.473 186.157 261.451 186.064 261.409C185.971 261.366 185.888 261.303 185.821 261.224C185.753 261.144 185.703 261.051 185.674 260.951C185.645 260.85 185.638 260.744 185.652 260.64V260.684ZM181.446 242.388C181.446 242.194 181.521 242.008 181.654 241.871C181.786 241.735 181.967 241.658 182.154 241.658C182.342 241.658 182.522 241.735 182.655 241.871C182.788 242.008 182.862 242.194 182.862 242.388L183.004 260.727C183.004 260.921 182.929 261.107 182.797 261.244C182.664 261.381 182.484 261.457 182.296 261.457C182.108 261.457 181.928 261.381 181.795 261.244C181.662 261.107 181.588 260.921 181.588 260.727L181.446 242.388ZM176.54 242.424C176.53 242.231 176.594 242.041 176.72 241.896C176.845 241.752 177.021 241.665 177.209 241.654C177.397 241.643 177.581 241.71 177.721 241.839C177.861 241.969 177.946 242.15 177.956 242.344L178.947 260.684C178.952 260.78 178.938 260.875 178.907 260.966C178.876 261.056 178.827 261.14 178.765 261.211C178.703 261.282 178.627 261.34 178.543 261.381C178.459 261.422 178.367 261.446 178.274 261.45H178.239C178.058 261.451 177.884 261.38 177.753 261.252C177.621 261.124 177.542 260.95 177.531 260.764L176.54 242.424ZM171.626 242.461C171.617 242.365 171.625 242.268 171.652 242.175C171.679 242.083 171.723 241.997 171.783 241.922C171.842 241.847 171.915 241.786 171.997 241.74C172.08 241.695 172.17 241.667 172.264 241.658C172.449 241.639 172.634 241.697 172.779 241.819C172.924 241.941 173.016 242.116 173.035 242.307L174.876 260.64C174.886 260.736 174.877 260.833 174.85 260.925C174.823 261.018 174.779 261.104 174.72 261.178C174.661 261.253 174.588 261.315 174.505 261.36C174.422 261.406 174.332 261.434 174.239 261.443H174.168C173.993 261.444 173.824 261.378 173.693 261.258C173.562 261.138 173.479 260.973 173.46 260.793L171.626 242.461ZM169.417 260.83L166.72 242.49C166.694 242.299 166.741 242.106 166.853 241.951C166.964 241.797 167.13 241.694 167.315 241.665C167.407 241.65 167.501 241.655 167.591 241.678C167.681 241.701 167.767 241.742 167.842 241.799C167.917 241.856 167.98 241.927 168.028 242.01C168.076 242.092 168.108 242.183 168.122 242.278L170.812 260.618C170.839 260.808 170.791 261.002 170.679 261.157C170.568 261.311 170.402 261.414 170.217 261.443H170.111C169.94 261.441 169.775 261.374 169.647 261.256C169.52 261.138 169.438 260.976 169.417 260.8V260.83ZM161.813 242.526C161.795 242.431 161.796 242.332 161.815 242.236C161.833 242.14 161.87 242.049 161.923 241.968C161.976 241.887 162.044 241.818 162.123 241.764C162.202 241.71 162.29 241.673 162.383 241.654C162.476 241.635 162.572 241.636 162.665 241.655C162.758 241.674 162.846 241.713 162.924 241.767C163.003 241.822 163.07 241.892 163.123 241.973C163.175 242.055 163.211 242.146 163.229 242.242L166.769 260.581C166.788 260.676 166.788 260.773 166.77 260.868C166.752 260.962 166.716 261.052 166.664 261.132C166.612 261.212 166.545 261.281 166.467 261.334C166.389 261.388 166.302 261.425 166.21 261.443H166.076C165.91 261.446 165.748 261.39 165.619 261.283C165.49 261.176 165.401 261.026 165.368 260.859L161.813 242.526Z" fill="black"/>
</svg>
